<svg id="Layer_1" data-name="Layer 1" xmlns="http://www.w3.org/2000/svg" viewBox="0 0 341.77183 27.15849"><path d="M114.46579,5.17208a9.12684,9.12684,0,1,0,9.17874,9.1267A9.15285,9.15285,0,0,0,114.46579,5.17208Zm-.14587,14.23161a5.21075,5.21075,0,0,1-5.10652-5.30908,5.11041,5.11041,0,1,1,10.21309,0A5.2108,5.2108,0,0,1,114.31992,19.40369Z" style="fill:#f3cf13"/><path d="M308.743,5.04181a9.12684,9.12684,0,1,0,9.17874,9.1267A9.15285,9.15285,0,0,0,308.743,5.04181Zm-.14587,14.23161a5.21075,5.21075,0,0,1-5.10652-5.30908,5.11041,5.11041,0,1,1,10.21309,0A5.2108,5.2108,0,0,1,308.59717,19.27342Z" style="fill:#f3cf13"/><polygon points="281.42 6.903 284.066 9.267 288.671 9.267 288.671 23.169 292.723 23.169 292.723 9.208 297.386 9.208 297.386 5.507 294.6 3.343 281.42 6.903" style="fill:#f3cf13"/><polygon points="44.917 3.257 43.904 23.342 47.699 23.342 47.699 11.825 55.247 23.342 59.042 23.342 59.042 5.717 56.216 3.257 55.586 15.4 49.568 5.62 44.917 3.257" style="fill:#f3cf13"/><polygon points="65.136 3.374 61.591 20.882 64.172 23.24 76.155 23.24 76.155 19.528 73.574 17.17 67.98 19.528 68.054 15.907 74.649 15.678 74.512 12.36 71.931 10.002 68.017 12.285 68.054 8.888 75.74 8.805 75.67 5.615 73.088 3.257 65.136 3.374" style="fill:#f3cf13"/><path d="M99.24475,15.72226a4.92514,4.92514,0,0,0,2.74374-4.50595,6.06146,6.06146,0,0,0-6.58887-5.58746H88.43746V23.2536H92.3572V17.37585l2.42645.0373,4.25895,6.10794,4.63351-.26749Zm-3.60245-1.6315H92.3572V9.08844h3.04242s2.74384.112,2.59448,2.50116A2.53716,2.53716,0,0,1,95.6423,14.09076Z" style="fill:#f3cf13"/><path d="M332.76917,15.74765a5.09528,5.09528,0,0,0,2.7475-4.58212,6.06147,6.06147,0,0,0-6.58887-5.58747h-6.96216V23.20282h3.91974V17.32507l2.42645.0373,4.33771,5.84045h4.54416ZM329.17047,14.04h-3.28509V9.03766h3.04242s2.74383.112,2.59448,2.50116A2.53717,2.53717,0,0,1,329.17047,14.04Z" style="fill:#f3cf13"/><polygon points="129.751 5.501 131.782 16.926 137.669 3.262 141.057 5.501 143.281 16.926 148.191 3.026 150.572 5.577 145.236 23.164 141.402 22.901 137.532 9.748 133.623 23.164 129.79 22.939 126.395 3.262 129.751 5.501" style="fill:#f3cf13"/><path d="M175.41906,10.31339s-5.76379-3.57778-9.19189.38641c-3.31345,3.83162.78082,7.697.78082,7.697s4.713.18516,5.76042-2.08911c.159-.34514,1.59168,1.71785,2.65065,2.52605v3.96886s-5.89867,2.58522-10.74141-1.05593-3.095-10.12242-3.095-10.12242,5.0402-7.79066,11.52146-7.52518a9.436,9.436,0,0,0,2.31493,2.35474Z" style="fill:#f3cf13"/><path d="M227.78332,10.18346s-5.62512-3.66171-9.05322.30247c-3.31345,3.83162.64215,7.7809.64215,7.7809s3.736.82453,5.72159-1.95919c.438-.61408,1.30911,1.71811,2.68948,2.39612v3.96886s-5.89867,2.58523-10.74141-1.05593-3.095-10.12241-3.095-10.12241,2.2211-6.466,8.70236-6.20057c0,0,1.50437-1.44287,2.44455-1.366,1.02307.08365,1.532,1.71305,2.68948,2.39613Z" style="fill:#f3cf13"/><path d="M191.12293,5.3984l-3.20734-2.27178L177.55793,21.46445l4.86065,2.05664,1.62793-3.5332,8.27941-.05713,1.05458,3.16369h4.33295Zm-6.04126,10.49,2.83392-7.38387,3.20734,7.59893Z" style="fill:#f3cf13"/><path d="M278.03672,5.3984l-3.20735-2.27178-10.714,18.28705,5.2832,1.95837,1.32471-3.63708,7.09229.03808,2.47872,3.32141h4.33295Zm-6.00095,10.571,2.47363-7.42678,3.52732,7.56084Z" style="fill:#f3cf13"/><polygon points="202.371 3.127 201.045 23.324 212.66 23.324 212.66 19.573 210.054 17.072 205.159 19.538 204.977 5.628 202.371 3.127" style="fill:#f3cf13"/><polygon points="253.47 3.119 252.193 23.372 263.809 23.372 263.809 19.622 261.153 17.065 256.308 19.587 256.126 5.676 253.47 3.119" style="fill:#f3cf13"/><path d="M233.36746,3.11921,235.93627,5.391v10.4433s0,3.99375,3.59438,3.99375,3.79406-3.834,3.834-4.473,1.385-12.23582,1.385-12.23582L247.31846,5.391V16.11384s.15975,7.46035-7.688,7.32455-7.688-6.80536-7.688-6.80536Z" style="fill:#f3cf13"/><path d="M30.13516,5.22115a9.12684,9.12684,0,1,0,9.17874,9.1267A9.15285,9.15285,0,0,0,30.13516,5.22115Zm-.14587,14.2316a5.21075,5.21075,0,0,1-5.10652-5.30907,5.11042,5.11042,0,1,1,10.2131,0A5.21079,5.21079,0,0,1,29.98929,19.45275Z" style="fill:#f3cf13"/><polygon points="14.441 23.308 14.441 9.301 19.211 9.301 19.02 5.53 16.625 3.287 14.441 4.73 3.126 6.872 5.516 9.475 7.725 9.41 11.727 22.447 14.441 23.308" style="fill:#f3cf13"/><path d="M27.96244,2.929a9.12684,9.12684,0,1,0,9.17874,9.1267A9.15285,9.15285,0,0,0,27.96244,2.929Zm-.14587,14.2316a5.21075,5.21075,0,0,1-5.10652-5.30907,5.11041,5.11041,0,1,1,10.21309,0A5.21079,5.21079,0,0,1,27.81657,17.16055Z" style="fill:#feffff"/><path d="M112.11522,3.02639a9.12684,9.12684,0,1,0,9.17874,9.1267A9.15285,9.15285,0,0,0,112.11522,3.02639Zm-.14587,14.2316a5.21075,5.21075,0,0,1-5.10652-5.30907,5.11041,5.11041,0,1,1,10.21309,0A5.21079,5.21079,0,0,1,111.96935,17.258Z" style="fill:#feffff"/><polygon points="3.126 3.113 3.126 6.872 7.731 6.872 7.731 20.775 11.782 20.775 11.782 6.814 16.445 6.814 16.445 3.113 3.126 3.113" style="fill:#feffff"/><path d="M306.41356,2.93941a9.12684,9.12684,0,1,0,9.17873,9.1267A9.15285,9.15285,0,0,0,306.41356,2.93941Zm-.14588,14.2316a5.21074,5.21074,0,0,1-5.10651-5.30907,5.11041,5.11041,0,1,1,10.21309,0A5.21079,5.21079,0,0,1,306.26768,17.171Z" style="fill:#feffff"/><polygon points="281.42 3.144 281.42 6.903 286.025 6.903 286.025 20.806 290.076 20.806 290.076 6.845 294.739 6.845 294.739 3.144 281.42 3.144" style="fill:#feffff"/><polygon points="41.078 3.257 41.078 20.882 44.873 20.882 44.873 9.365 52.421 20.882 56.216 20.882 56.216 3.257 52.508 3.257 52.508 14.295 44.917 3.257 41.078 3.257" style="fill:#fff"/><polygon points="61.591 3.257 61.591 20.882 73.574 20.882 73.574 17.17 65.398 17.17 65.473 13.548 71.931 13.623 71.931 10.002 65.436 9.927 65.473 6.53 73.163 6.642 73.088 3.257 61.591 3.257" style="fill:#fff"/><path d="M96.25238,14.07767s3.24774-2.05322,3.13574-5.26361A6.06145,6.06145,0,0,0,92.79926,3.2266H85.8371V20.85135h3.91974V14.97361l2.42645.03729,2.87451,5.84045h4.70361Zm-3.21045-2.38916H89.75684V6.68619h3.04242s2.74383.112,2.59448,2.50116A2.53717,2.53717,0,0,1,93.04193,11.68851Z" style="fill:#fff"/><path d="M329.78056,14.11087s3.24774-2.05322,3.13574-5.26361a6.06146,6.06146,0,0,0-6.58887-5.58746h-6.96216V20.88455H323.285V15.00681l2.42646.03729,2.87451,5.84045h4.70361Zm-3.21045-2.38916H323.285V6.71939h3.04242s2.74384.112,2.59449,2.50116A2.53717,2.53717,0,0,1,326.57011,11.72171Z" style="fill:#fff"/><polygon points="126.395 3.262 129.401 14.799 132.708 3.262 137.669 3.262 140.9 14.799 143.982 3.026 148.191 3.026 142.855 21.037 139.021 20.774 135.151 7.621 131.242 21.037 127.409 20.811 122.148 2.898 126.395 3.262" style="fill:#fff"/><path d="M172.76841,7.78734s-5.20145-3.56366-8.62954.40053c-3.31345,3.83161.21847,7.68283.21847,7.68283a7.439,7.439,0,0,0,8.41107.43694V20.2765s-5.89868,2.58522-10.74141-1.05593-3.095-10.12242-3.095-10.12242,2.2211-6.466,8.70236-6.20056a9.666,9.666,0,0,1,5.134,1.03012Z" style="fill:#fff"/><path d="M225.09384,7.78734s-5.20144-3.56366-8.62954.40053c-3.31345,3.83161.21847,7.68283.21847,7.68283a7.439,7.439,0,0,0,8.41107.43694V20.2765s-5.89867,2.58522-10.74141-1.05593-3.095-10.12242-3.095-10.12242,2.2211-6.466,8.70236-6.20056a9.666,9.666,0,0,1,5.134,1.03012Z" style="fill:#fff"/><path d="M187.91559,3.12662h-4.91553L176.5188,20.82267h4.15094l1.3836-3.67756,6.91822.07282,1.2016,3.60474h4.33294Zm-4.91553,10.705,2.476-6.77252,2.43958,6.77252Z" style="fill:#fff"/><path d="M274.82937,3.12662h-4.91552l-6.48127,17.69605h4.15094l1.38361-3.67756,6.91821.07282,1.2016,3.60474h4.33295Zm-4.91552,10.705,2.47595-6.77252,2.43957,6.77252Z" style="fill:#fff"/><polygon points="198.439 3.127 198.439 20.823 210.054 20.823 210.054 17.072 202.553 17.038 202.371 3.127 198.439 3.127" style="fill:#fff"/><polygon points="249.538 3.119 249.538 20.815 261.153 20.815 261.153 17.065 253.652 17.03 253.47 3.119 249.538 3.119" style="fill:#fff"/><path d="M229.37371,3.11921h3.99375V13.5625s0,3.99375,3.59437,3.99375,3.79407-3.834,3.834-4.473,0-9.964,0-9.964h3.95381V13.84206s.15975,7.46035-7.688,7.32455-7.688-6.80536-7.688-6.80536Z" style="fill:#fff"/><path d="M7.55627,20.8707V9.58945H5.46155L2.81116,6.93906V2.88926h13.793l2.65039,2.64941V9.58945H14.63538V23.52109H10.20667Zm3.98731-.31543V6.62363H16.2887V3.34336H3.26624V6.62363H8.01038V20.55527ZM4.22522,7.36875v-.29H3.8844v.29Zm.4541.4541V7.482H4.3385v.34082Zm.4668.4668V7.94883H4.8053v.34082Zm-.02539-.94629V7.07871h-.29v.26465Zm.47949,1.40039V8.40293H5.2594v.34082Zm-.0127-.9336V7.50742H5.28479v.30273Zm.4795,1.3252V8.8707H5.7262v.26465Zm-.02539-.87109v-.29h-.29v.29ZM6.01721,7.318V7.07871H5.76428V7.318ZM6.5094,8.73105V8.42832H6.20569v.30273ZM6.484,7.78476v-.252H6.23108v.252ZM6.9635,9.13535V8.89511h-.29v.24024Zm-.02539-.89649v-.252H6.68518v.252Zm-.02539-.94628V7.0914H6.71057v.20118Zm.49219,1.41406V8.45371H7.153v.25293Zm-.02539-.94727V7.5582H7.17737v.20117Zm4.7959-.21386v-.29l-.17676-.17676v.4668Zm2.00585,7.01562h-.03808v-.11328h.03808v-.74414H14.1178v-.18945h.06347v-.68165h-.08789v-.252h.08789v-.61914h-.126v-.30273h.126V11.0914h-.15136v-.36621h.15136V10.233h-.18945V9.7916h.18945V9.36191h-.20214v.417h-.42871V9.35019h.416V9.04648l-.13867-.13867h-.29v.417h-.44141V8.89511h.416V8.59238l-.13867-.13867h-.29v.42871h-.44141V8.441h.42871v-.29l-.13867-.13867h-.30273v.416h-.42969V7.99961h.417V7.69687l-.13867-.13867h-.291v.416h-.18847v.51757h.17676V8.858h-.17676V9.4h.126v.31543h-.126v.61816h.08789v.25293h-.08789v.68164h.0625v.18848h-.0625v.74512h.03711V12.315h-.03711v8.68164l2.18261,2.083Zm-1.956-5.64062h.37891v.3789h-.37891Zm.03809.93359H12.566v.31543h-.30273Zm.02539.93457h.25195v.23926H12.2887Zm.03808.93359h.17578V11.899h-.17578Zm.02442.9209h.12695v.126H12.3512Zm.32812-5.376V7.11582h-.16406v.15136Zm0,2.10743h.36621v.36621h-.36621Zm.02539.93457h.31543v.30273h-.31543Zm.03809.93359H12.983V11.482H12.7428Zm.02539.9209h.18945v.18945h-.18945Zm.03808.93359h.11329v.127h-.11329Zm.32813-5.375V7.5709H12.983v.15136Zm0,2.10742h.36523v.36524H13.1344Zm.02441.9209h.31543V11.066h-.31543Zm.03809.9336h.24023v.25293H13.1969Zm.02539.93359h.18945v.18945h-.18945Zm.03809.93457h.11328v.11328h-.11328Zm.36621-6.25976V7.0914h-.20215v.20118Zm-.02539.89648V8.03769h-.16407v.15137Zm-.02539,2.082h.37793V10.649h-.37793Zm.03808.93359h.30274v.31543h-.30274Zm.02442.9336h.25293v.24023h-.25293Zm.03808.93359h.17676v.17676h-.17676Zm.02539.92188h.126v.126h-.126Zm.37891-6.24707V7.54551h-.20215v.20117Zm-.02539.89648V8.49179h-.15137v.15137Zm.51758-1.33789V7.07871H14.32v.22656Zm-.02539.90918V8.0123h-.20215v.20215Zm-.0254.89551V8.95859H14.358V9.11ZM15.027,7.77207v-.252h-.25293v.252Zm-.02539.89648V8.4664h-.20215v.20215Zm.50488-1.33789V7.07871h-.29v.25195Zm-.0127.9082v-.252h-.25195v.252Zm-.02539.89649V8.9332h-.20214v.20215Zm.50489-1.33789V7.49472h-.30274v.30274Zm-.02539.89648V8.441h-.252v.25293Zm.50488-1.33789V7.07871h-.34082v.27734Zm-.02539.89551v-.29h-.29v.29Zm-.0127.88379V8.90781h-.252v.22754Zm.50489-1.3125V7.482h-.34082v.34082Zm-.02539.89551V8.41562h-.30274v.30274Zm1.90527-3.00293L16.7428,3.65879V7.07871l2.05664,2.05664ZM17.37366,8.277V7.93613h-.34082V8.277Zm-.02539.8584V8.88242h-.29v.25293Zm.49218-.3916V8.40293h-.33984v.34082Zm.45508.3916V8.858h-.34082v.27734Z" style="fill:#17314f"/><path d="M23.00256,20.52988l-1.67773-1.665a9.57363,9.57363,0,0,1-2.94043-6.89062,9.4462,9.4462,0,0,1,9.46387-9.43848,9.75188,9.75188,0,0,1,6.90234,2.95215l2.07031,2.083A9.45889,9.45889,0,0,1,30.233,23.82383C27.38147,23.82383,25.41272,22.91562,23.00256,20.52988ZM36.858,11.97422A9.00977,9.00977,0,1,0,27.84827,20.985,8.98441,8.98441,0,0,0,36.858,11.97422Zm-14.41015,0a5.40366,5.40366,0,1,1,10.80175,0,5.40454,5.40454,0,1,1-10.80175,0ZM24.70667,14.107a5.886,5.886,0,0,1,.22656-1.65332h-.0625v-.21387h.13867a5.74764,5.74764,0,0,1,.47949-1.06055h-.22754v-.31543h.31543v.17676c.06348-.10058.126-.20215.18946-.29h-.0879v-.36621h.37793l.03809-.03808V9.91758h.416V9.47617h-.42871v.416H25.653v-.416h.416V9.03379h-.44141v.417h-.416V9.02207h.416V8.59238h-.4414v.417h-.417V8.57968h.417v-.4414h-.44239v.416h-.42871l-.01269-.20117-.21485.252h.17676v.36621h-.36523v-.126l-.16406.23926h.0625V9.4h-.252a4.88148,4.88148,0,0,0-.42871,1.06054h.18848v.21387h-.21387v-.13867a5.31933,5.31933,0,0,0-.18945,1.43848,5.11876,5.11876,0,0,0,2.2207,4.35351A5.45309,5.45309,0,0,1,24.70667,14.107Zm-1.58985-2.72559h.16309v.16407h-.16309Zm.01172.90821h.127v.127h-.127Zm.37891-2.2959h.26464v.26465h-.26464Zm.02539.9209h.21484v.21484h-.21484Zm.02539.9082h.16406v.16406h-.16406Zm.01269.90918h.126v.126h-.126ZM23.92444,9.526h.31543V9.8414h-.31543Zm.02441.92188h.26563v.25195h-.26563Zm.02539.9082h.21485v.21485h-.21485Zm.02539.90821h.16407V12.441h-.16407Zm.02539.90917h.126v.126h-.126Zm.31543-4.11425h.37891v.36621h-.37891Zm.03809.90918h.30273v.31543h-.30273Zm.02539.9209h.252v.25195h-.252Zm.02441.9082h.20215v.21484h-.20215Zm.0127.90918h.17676v.17676H24.441Zm.02539.9209h.126v.126h-.126Zm.26563-5.48926V7.96152l-.20215.17676Zm.0625,1.36328h.36621v.36523h-.36621Zm.02539.9082h.31543v.31543H24.82Zm.02539.9209H25.11v.26563h-.26465Zm7.95019.64356a5.42034,5.42034,0,0,0-.46777-2.25879,3.41085,3.41085,0,0,0-2.2207-.73145,4.97134,4.97134,0,0,0-4.94629,5.123,4.02085,4.02085,0,0,0,.71875,2.625,4.9842,4.9842,0,0,0,6.916-4.75781ZM25.58948,8.11289V7.735h-.37793v.37793ZM25.236,9.943h.36621v.36621H25.236Zm.80762-1.38868V8.17636h-.37793v.37793Zm-.03711-.92089V7.318h-.26563l-.0498.02539v.29ZM26.486,8.99668V8.61777h-.3789v.37891Zm-.03808-.92188V7.75937h-.31543V8.0748Zm-.02539-.9209V7.05332l-.252.08789V7.1539Zm.50488,2.28418v-.3789h-.37891v.3789Zm-.02539-.9209V8.20176h-.32813v.31542ZM26.86389,7.608V7.34336h-.252V7.608Zm.47949,1.36328V8.64316H27.028v.32813Zm-.02539-.9209V7.78476h-.26465v.26563Zm-.03711-.92188V6.92734h-.18945v.20117Zm.416,1.96875h-.22656v.126Zm.06348-.60547V8.23886h-.26563v.25293Zm-.03809-.92089V7.38144h-.18945V7.5709Zm.32813,1.3623.15136-.0625V8.68125h-.252V8.9332Zm.126-.9209V7.82285h-.20215V8.0123Zm-.03808-.9209V6.96445h-.126V7.0914Zm.47949,1.375V8.26426h-.20117V8.4664Zm-.03711-.92089V7.40683h-.127v.13868Zm.07519,14.30957v-.11329H28.5426v.11329Zm.36621-13.86817v-.126h-.126v.126ZM29.11,21.42636v-.07617l-.13868.02539v.05078Zm-.0127.87012V22.1832H28.984v.11328ZM29.4762,8.42832v-.126h-.13868v.126Zm.07617,13.43945V21.7291H29.4137v.13867Zm-.02539.87109v-.11425h-.10156v.11425Zm.47949-1.2871V21.275h-.17676v.17676Zm-.0127.85742v-.13867h-.15136v.13867Zm-.02539.87109V23.067H29.8678v.11328Zm.4795-1.2998V21.7164h-.17676v.16407Zm-.02539.87109v-.13965h-.13868v.13965Zm.47949-1.28711V21.2623h-.20117v.20215Zm-.0127.85742v-.16406h-.17676v.16406Zm-.02441.8711v-.13868h-.13965V23.193Zm.49121-2.15821V20.8082h-.10059c-.05078.0127-.08789.03711-.13867.04981v.17675Zm-.01172.8711v-.20215h-.20215v.20215Zm-.02539.85742v-.16309h-.16406v.16309Zm.47949-1.28711v-.23926h-.24023v.23926Zm-.01269.87109v-.21484h-.21485v.21484Zm-.02539.8584V23.0289h-.16407v.17676Zm.07617-2.56152v-.08887l-.18946.08887Zm.416.40332v-.26465h-.26464v.26465Zm-.01269.87109v-.24023h-.23926v.24023Zm-.0127.85742V22.5748h-.21484V22.776Zm.4795-2.14453v-.30273h-.30274v.30273Zm-.0127.85742v-.26464h-.26465v.26464Zm-.0127.8711v-.24024H32.442V22.36Zm-.02539.68164v-.02539h-.20117v.07519Zm.50489-2.83984v-.32813h-.10059l-.22754.15137v.17676Zm-.0127.87109v-.30274h-.30273v.30274Zm-.01269.8584v-.26563h-.26465v.26563Zm-.01172.87011v-.23925h-.24024v.23925Zm.5039-3.01562v-.31543l-.36523.26465v.05078Zm-.02441.8584V20.316H33.275v.32813Zm-.0127.87012v-.30274h-.30273v.30274Zm-.01269.85839V22.108h-.27832v.26464Zm.47949-2.1455v-.36622H33.691v.36622Zm-.01269.85839v-.32812h-.32813v.32812Zm-.0127.87012v-.30273h-.30273v.30273Zm-.03809.59375h-.252v.11328Zm.08887-3.19238V19.1041l-.31543.25293Zm.42871.4414v-.3916h-.3916v.3916Zm-.01269.8584v-.35351h-.36621v.35351Zm-.0127.87012v-.32812h-.32812V21.527Zm-.15137.8584.13868-.07617v-.21387h-.30274v.29Zm.20215-3.458v-.252l-.26562.252Zm1.75391,1.7666v-.42871h.44141v.35352l.34082-.36621h-.32813v-.40332h.4043v.31543l.29-.36622h-.22754v-.3789h.36621V19.609l.18945-.27734h-.10156v-.32813h.31543l.13965-.24023v-.18945h.10058a9.70076,9.70076,0,0,0,.4795-1.04688h-.11329v-.24023H38.777a8.55921,8.55921,0,0,0,.30273-1.11036H39.067v-.17675h.0498c.03809-.23926.06348-.4795.08887-.71875h-.126v-.15137h.13867c.0127-.21484.02539-.42969.02539-.64356a9.12488,9.12488,0,0,0-3.10449-6.99121,9.47615,9.47615,0,0,1,1.17383,4.4668,9.58859,9.58859,0,0,1-.3916,2.70117h.13867v.21387H36.858a9.89187,9.89187,0,0,1-.416,1.07324h.20215v.27735h-.26563v-.15137l-.15137.30273v.30274h-.16406a9.53086,9.53086,0,0,1-.98437,1.40039h.31543v.40429h-.40333V18.1832l-.29.32813h.26464V18.94h-.416v.42968h.42871v-.417h.42871v.42871h-.416v.42969h.42872v-.417h.42968v.42969h-.42968v.42871h.42968v-.416h.44141v.42871h-.42871v.42871Zm-1.33789-.4541v-.40332h-.39063v.40332Zm-.0127.8584V20.732h-.36523v.36621Zm-.01269.87012v-.33985h-.32813v.33985Zm.4668-1.28711v-.40332h-.39063v.40332Zm-.01172.8584v-.36622h-.36621v.36622Zm.0498-3.01563h.4043v.40332h-.4043Zm.0127-.8584h.36621v.36621H35.445Zm.3916,3.458v-.4043H35.445v.4043Zm-.25293.49219h-.126v.08789Zm.291-2.65039h.40332v.40429h-.40332Zm.01172-.8584h.36621v.36621h-.36621Zm.26563,3.05371h-.26563v.22754Zm-.25293-3.92383h.34082v.34082h-.34082Zm.40429,2.16992h.416v.4043h-.416Zm.34083,1.29981h-.34083v.32812Zm-.31543-2.16992H36.694v.37793h-.36523Zm.01269-.8584h.34082v.34082h-.34082Zm.0127-.8711h.31543v.31543h-.31543Zm.416,2.1709h.36621V19.357h-.36621Zm.0127-.8584h.34082v.34082h-.34082Zm.01269-.87011H37.111V17.565h-.31543Zm.02539-.8584h.26465v.27734h-.26465Zm.0127-.8711h.23926V15.773h-.23926Zm.39062,3.042h.34082V18.902h-.34082Zm.0127-.8711h.30273v.31543h-.30273Zm.01269-.8584H37.527V17.11h-.27735Zm.02539-.87011h.23926v.25195H37.275Zm.0127-.8584h.21387v.21484h-.21387Zm.0127-.87109h.17675v.17675h-.17675Zm.01269-.85743h.15137v.13868h-.15137Zm.02441-.87109h.11426v.11328h-.11426Zm.34082,5.62793h.30274v.30273h-.30274Zm.0127-.8584h.27832v.26563H37.691Zm.0127-.87012h.25293v.23926h-.25293Zm.02539-.85839H37.944v.20214h-.21484Zm.01269-.87012h.17676v.17578h-.17676Zm.0127-.8584h.15136v.13867h-.15136Zm.02539-.87109h.11328v.11425h-.11328Zm.35351,4.7705h.27735v.26465h-.27735Zm.01172-.87109h.25293v.24023h-.25293Zm.02539-.8584h.20215v.20215h-.20215Zm.0127-.87012H38.36v.17676h-.17676Zm.01269-.85839h.15137v.13867h-.15137Zm.02539-.87012h.11328v.11328h-.11328Zm.39161,3.02832h.20117v.21387h-.20117Zm.01171-.8584h.17676V15.735h-.17676Zm.0127-.87109h.15137v.15234h-.15137Zm.01269-.85743h.11426V13.943H38.65Zm.44239.44141h.11328v.11328h-.11328Z" style="fill:#17314f"/><path d="M40.91048,20.90146V2.92h4.15234L49.5677,5.62021l2.67481,4V2.92h4.15234l2.77539,2.77539V23.55185H54.8929l-2.625-2.625-4.42871-6.6123v9.2373H43.56087Zm3.83691-.31543V8.88877L52.596,20.586h3.4834V3.37412H52.69661V15.02158L44.87337,3.37412H41.36555V20.586Zm.82031-6.72558v-.35352h-.36621v.35352Zm1.81641,3.15429h-.37793v-.40332h.37793v-.4541h-.416v-.45508H46.514v-.4414h-.4541v-.4541h-.44238v-.45411h-.416v6.67481l2.18262,2.083Zm-2.16992-2.208h.40332v.40332h-.40332Zm.31543-1.87989v-.27832h-.27735v.27832ZM45.25227,15.753h.31543v.31543h-.31543Zm.23926-3.77343v-.20117h-.20215v.20117Zm-.18945,4.71972h.21484v.21485h-.21484Zm.05078.94629h.11328v.127h-.11328Zm.66894-3.33105v-.36621h-.36621v.36621Zm-.36621.94629h.4043v.40429h-.4043Zm.32813-1.89258v-.27734h-.29v.27734Zm-.27735,2.83887h.30274v.30273h-.30274Zm.22657-3.77246v-.20215h-.18848v.20215Zm6.30957.32812v-.44238h-.32813V11.8917h.32813v-.49219h-.30274V11.0206h.30274v-.59277h-.23926v-.23926h.0752L49.23958,5.94834l-3.4834-2.082,3.63477,5.41308H49.555v.25293l.16406.23926v-.0625h.30273v.30273h-.13867l.26465.40332v-.29h.35352v.35352h-.30274l.64356.959h.15136v.22657l.13868.21484h.31543v.44141h.4541v.44238Zm-6.48633,4.39063H45.971v.21484h-.21484Zm.03809.94726h.126v.126h-.126Zm.68164-3.332v-.36621H46.1097v.36621Zm-.36621.94629H46.514v.3916H46.1097Zm.31542-1.89258V13.545h-.27734v.27734Zm-.27734,2.82715h.31543v.31543h-.31543Zm.22754-3.77344v-.20215h-.18945v.20215Zm-.17676,4.71973h.21387v.22656h-.21387Zm.04981.94629h.127v.126h-.127Zm.66894-3.332v-.36524h-.36523v.36524Zm-.36523.94726h.40332v.40332h-.40332Zm.32715-1.88086v-.27734h-.27735v.27734Zm-.27735,2.82715h.31543V17.419h-.31543Zm.22754-3.77344V13.128H46.64v.20215Zm-.17676,4.71973h.21485v.21484h-.21485Zm.05079.94629h.11328v.126h-.11328Zm.68066-3.33106v-.36621h-.37793v.36621Zm-.0625-.94726v-.27735h-.27832v.27735ZM47.056,17.55771h.30372v.30274H47.056Zm.03809.94629h.22754v.21484h-.22754Zm.20215-4.71973V13.5831h-.18945v.20117Zm-.15137,5.666h.126v.11328h-.126ZM48.48274,7.56357h.08789v.08789h-.08789Zm.44141.44141h.10058v.10058h-.10058Zm.4414.4414h.126v.127h-.126Zm.42872.42969h.16406v.16406h-.16406Zm.03808-.8584h.08887v.08789h-.08887Zm.3916,1.28711h.20215v.20215H50.224Zm.04981-.8457h.10156v.10156h-.10156Zm.3164,2.10742h.37793v.37891h-.37793Zm.0625-.833h.24024v.24024h-.24024Zm.06348-.832h.11328v.11328h-.11328Zm.31543,2.10645h.39063v.3916h-.39063Zm.0498-.84473h.291v.29h-.291Zm.06348-.833h.15137v.15137h-.15137Zm.32813,2.12012h.40429v.416H51.473Zm.02539-.87109h.35351v.35351h-.35351Zm.07519-.82032h.20215V9.961h-.20215Zm.30371,3.02832h-.13965l.13965.20215Zm.36524.45508h-.18946l.18946.29Zm4.69433-7.332v-.416h-.40332v.416Zm1.7793,4.02539h-.36621V9.56943h.36621V9.07724h-.37793v-.416h.37793v-.4668h-.40332v-.4541h-.4541v-.4541h-.45508V6.83115h-.4541v-.4541h-.416v.46679h.40332v.417h-.40332v13.7666l2.18262,2.083Zm-1.80469-4.959V4.61045h-.36523v.36621Zm-.36523,2.78906h.37793v.37793h-.37793ZM56.887,4.04306l-.30371-.30371h-.0127v.30371Zm-.31641,4.64356h.32813v.32812h-.32813Zm.02539.9209h.27832v.27734H56.596Zm.02539.93359H56.849v.22754h-.22754Zm.02539.92188h.17676v.17675H56.6468Zm.0254.92089h.126v.126h-.126ZM57.391,6.36435v-.416h-.42872v.416Zm-.416.9336h.416v.417h-.416Zm.3916-1.86719V5.06455h-.37891v.36621Zm-.36621,2.78906h.37793v.36524h-.37793Zm.34082-3.72265-.30273-.30274H57.013v.30274Zm-.31543,4.64355h.32813v.32812h-.32813Zm.02539.9209h.27735v.27832H57.0511Zm.02442.92187h.22753v.22657h-.22753Zm.02539.9336h.17675v.17675h-.17675Zm.02539.9209h.126v.126h-.126ZM57.846,6.81845v-.416h-.42968v.416Zm-.417.93457h.417v.416h-.417Zm.3916-1.86816V5.51865h-.36621v.36621Zm-.36621,2.77637h.36621v.3789h-.36621Zm.34082-3.71-.30273-.30274h-.0127v.30274Zm-.31543,4.64355h.31543v.31543h-.31543Zm.0127.92188h.27734V10.794h-.27734Zm.02539.92089h.22656v.22657H57.5179Zm.02441.9209h.17676v.17676h-.17676Zm.02539.9336h.127v.127h-.127Zm.73242-6.01856v-.417h-.42968v.417Zm-.417.9336h.417v.416h-.417Zm.0127.9082h.3789v.37891h-.3789Zm.3789-2.77637V5.97373h-.36621V6.339Zm-.35351,3.69727h.32812v.32812h-.32812Zm.32812-4.63086-.30273-.30274h-.0127v.30274Zm-.30273,5.55273H58.224v.27735h-.27734Zm.02539.9336h.22656v.22754H57.972Zm.02539.92089h.17676v.17676h-.17676Zm.02539.92188h.126v.126h-.126Zm.69336-6.00684v-.417h-.39062v.417Zm0-.93359V6.42783h-.35352V6.794Zm-.34082,3.69727h.32813v.32812h-.32813Zm.32813-4.63184-.30274-.30273H58.388v.30273Zm-.30274,5.55273h.27734v.27735h-.27734Zm.02539.9209h.22754v.22754H58.4261Zm.02539.9336h.17676v.17675h-.17676Zm.02539.92187h.126v.126h-.126Z" style="fill:#17314f"/><path d="M61.304,20.90146V2.92H73.27962L75.93,5.56943V8.98935H68.0804v.76953h4.01367l2.64941,2.65039v3.52051H68.0804v1.02246h5.55273l2.65039,2.64942v3.95019H63.95442ZM73.3177,20.586V17.40634H65.24153V13.44345h6.53711V10.213H65.24153V6.503h7.72266V3.37412H61.75911V20.586Zm-10.99121.707v-.126h-.126v.126Zm.4541.45411v-.126h-.126v.126Zm.4795-.45411V21.1417H63.096v.15136Zm-.02539.90821v-.126h-.126v.126Zm.48046-.4541V21.5958h-.15234v.15137Zm-.01269.92089v-.126h-.127v.126Zm.5039-1.34961v-.20214H64.0052v.20214ZM64.182,22.214v-.15137H64.0179V22.214Zm-.02539.90821v-.126h-.126v.126Zm.50488-1.34961v-.20215H64.4593v.20215Zm-.02539.8955V22.5167H64.4847v.15136Zm.51758-1.32519v-.23926h-.25293v.23926Zm-.02539.89648V22.0372H64.9261v.20215Zm-.02539.89551v-.15137H64.9388v.15137Zm.50488-1.33691V21.545h-.25293V21.798Zm-.02539.8955v-.20214H65.3802v.20214ZM65.7718,7.12217V6.9581h-.07617v.16407Zm1.04688,2.63671V9.45615h.31543v.30273H67.639V9.39267h-.4414v-.4414h-.45411v-.4541h-.4541V8.05576H65.847v-.4541h-.15137v.5039h.10157V8.421h-.10157V9.75888ZM65.7718,14.22666v-.32813h-.07617v.32813ZM67.639,16.95224v-.45507h-.4414v-.44141h-.45411v-.4541h-.4541v-.44141H65.847v-.4541h-.15137v.50391h.10157v.31543h-.10157v1.42675Zm-1.55176,4.35352v-.26563h-.29v.26563Zm-.01269.959v-.25293h-.25293v.25293Zm-.02539.89551V22.9581H65.847v.20215Zm.16406-15.584V7.22275h-.34082v.35352Zm0,7.10449v-.35352h-.34082v.35352Zm-.29-6.13281h.31543v.32812h-.31543Zm0,7.10449h.31543v.32812h-.31543Zm.0752-6.13281h.16406v.16406h-.16406Zm0,7.11718h.16406v.15137h-.16406Zm.55566,5.18653v-.30371H66.2513v.30371Zm-.15137-7.68555v-.126h-.126v.126Zm.126,8.58105v-.252h-.25195v.252Zm.13867-14.68847V7.67685H66.3138v.35352Zm0,7.10449v-.35352H66.3138v.35352Zm-.29-6.13281h.31543v.31543h-.31543Zm0,7.10449h.31543V16.422h-.31543Zm.35352-8.8584v-.126h-.126v.126Zm.30273,14.09473v-.30274H66.6927v.30274Zm-.02539.93457v-.291h-.29v.291Zm-.13867-7.67285v-.126h-.126v.126Zm.126,8.55566v-.22656h-.252v.22656Zm.126-14.68848V8.131l-.35254-.01269v.35351Zm0,7.1045v-.35352h-.35254v.35352Zm-.30273.98437h.31543v.31543h-.31543Zm.37891-8.8457V7.589h-.126v.126Zm.30273,14.13281v-.34082H67.1595v.34082Zm-.02539.89649V22.4415H67.1722v.30274Zm-.126-8.59375v-.15137h-.16406v.15137Zm-.02539.9082v-.126h-.126v.126Zm.24024-6.13281V8.57334H67.223v.35254Zm0,7.10449v-.35254H67.223v.35254Zm.11328-8.76953V7.10947H67.513v.15137Zm-.02539.9082v-.126h-.126v.126Zm.29,13.18652v-.31543h-.34082v.31543Zm.01269.94727V21.962H67.6136v.34082ZM67.929,23.173V22.9083h-.29V23.173Zm-.126-8.56836v-.15137h-.15136v.15137Zm-.0498-5.23633V9.02744h-.08887v.34082Zm.03711,6.15723v-.126h-.126v.126Zm-.03711.94726v-.34082h-.08887v.34082Zm.37793-8.75781V7.56357h-.15137v.15137Zm-.0127.9209v-.126h-.126v.126Zm.29,13.21191v-.34082h-.33984v.34082Zm.0127.92188v-.34082H68.0804v.34082Zm-.126-8.59375v-.20215h-.20215v.20215Zm-.02539.8955V14.92h-.16406v.15136Zm.35352-7.78515V7.08408h-.20215v.20215Zm-.02539.89551V8.03037h-.16407v.15137Zm.26562,13.18652v-.32813h-.34082v.32813Zm0,.93457V21.962h-.34082v.34082Zm.0127.88281v-.30273h-.34082v.30273Zm-.127-8.55566v-.20215h-.20117V14.63Zm-.02441.89551v-.15137h-.15234v.15137Zm.35254-7.78516V7.53818H68.8763v.20215Zm-.02539.89551V8.48447h-.15137v.15137Zm.18945,5.55273v-.24023h-.25195v.24023Zm.08887,7.65918v-.34082h-.34082v.34082Zm0,.92188v-.34082h-.34082v.34082Zm-.11426-7.67286v-.20214H69.015v.20214ZM69.56966,7.298V7.05869h-.252V7.298Zm-.02539.90918V8.005h-.20118v.20215ZM69.7718,21.381v-.34082H69.431V21.381Zm-.07617-6.72558v-.25293h-.25195v.25293Zm.08887,7.64746V21.962h-.34082v.34082Zm0,.9082v-.32812h-.34082V23.211Zm-.11328-7.66015V15.3497h-.20215v.20118Zm.35254-7.78516V7.51279h-.252v.25293Zm-.02442.89551V8.45908H69.7972v.20215ZM70.1761,14.214v-.291h-.291v.291Zm.0625,7.63379v-.34082h-.34082v.34082Zm-.07519-6.72558v-.252h-.25293v.252Zm.08789,7.64746v-.34082h-.34082v.34082Zm.25195-15.44629v-.29h-.29v.29Zm-.01172.90918V7.97959H70.2386v.25293Zm.15137,6.44824V14.378h-.30274v.30274Zm.0498,6.70019v-.34082h-.34082V21.381Zm0,.92188V21.962h-.34082v.34082Zm-.07519-6.72656v-.252h-.25293v.252ZM70.7054,23.211v-.32812h-.34082V23.211ZM70.971,7.79013V7.4874h-.30371v.30273Zm-.02539.89649V8.43369H70.6927v.25293Zm.17676,5.55176v-.33985h-.34082v.33985Zm-.02539.89648v-.29h-.29v.29Zm.0625,6.71289v-.34082h-.33984v.34082Zm0,.92188v-.34082h-.33984v.34082Zm.291-15.4209V7.00791H71.1097v.34082Zm-.0254.89648v-.291h-.29v.291Zm.16407,6.46094v-.34082h-.34082v.34082Zm-.02539.89551v-.30274h-.30274v.30274Zm.03808,5.77929v-.34082h-.34082V21.381Zm.0127.92188V21.962h-.34082v.34082Zm0,.9082v-.32812h-.34082V23.211Zm.30273-15.39551V7.4747h-.34082v.34082Zm-.02539.89649V8.40927h-.30273V8.712Zm.15137,5.52637v-.33985h-.34082v.33985Zm0,.92187v-.34082h-.34082v.34082Zm.02539,6.6875v-.34082h-.34082v.34082Zm.01269.92188v-.34082h-.34082v.34082Zm.29-15.4209V7.00791h-.34082v.34082Zm0,.9209V7.92978h-.34082v.33985Zm.13868,6.43652v-.34082h-.34082v.34082Zm0,.9209v-.34082h-.34082v.34082Zm.01269,5.7539v-.34082H72.182V21.381Zm0,.92188V21.962H72.182v.34082Zm.0127.9082v-.32812h-.34082V23.211Zm1.7539-10.625-2.05664-2.05761V13.797l2.05664,1.83008ZM72.83821,7.81552V7.4747h-.34082v.34082Zm0,.92188V8.39658h-.34082V8.7374Zm.126,6.42285v-.34082h-.34082v.34082Zm.02539,6.6875v-.34082h-.34082v.34082Zm0,.92188v-.34082h-.34082v.34082Zm.30273-15.4209V7.00791h-.34082v.34082Zm0,.9209V7.92978h-.34082v.33985Zm.13867,7.35742v-.34082h-.34082v.34082Zm0,5.7539v-.34082h-.34082V21.381Zm.0127.92188V21.962h-.34082v.34082Zm0,.9082v-.32812h-.34082V23.211ZM75.47591,5.74619,73.41829,3.68955V6.80576l2.05762,1.88086Zm-1.7168,2.06933V7.4747h-.34082v.34082Zm0,.92188V8.39658h-.34082V8.7374Zm.13867,13.11035v-.34082h-.33984v.34082Zm.0127.92188v-.34082h-.33985v.34082Zm1.91894-2.99121L73.7718,17.72177v3.31836l2.05762,2.082ZM74.21419,8.26963V7.92978h-.34082v.33985Zm.13867,14.0332V21.962H74.012v.34082Zm.01269.9082v-.32812h-.34082V23.211ZM74.681,8.7374V8.39658h-.34082V8.7374Zm.13868,14.03223v-.34082h-.34082v.34082Zm.4541.4414v-.32812h-.34082V23.211Z" style="fill:#17314f"/><path d="M85.64124,20.8834V2.88926h7.14257A7.35933,7.35933,0,0,1,98.08362,5.0084l1.95605,1.96875a5.92808,5.92808,0,0,1,2.06934,4.53027,5.571,5.571,0,0,1-2.46094,4.47949l4.45508,7.53418H99.0426l-4.11426-2.56152-1.80371-3.52149h-.45507v6.083H88.4801Zm3.9375-.32813v-5.7041h2.72558l2.915,5.7041h4.20215L95.9,14.107a6.039,6.039,0,0,0,3.24317-5.13574c-.0127-3.24317-2.6875-5.62793-6.35938-5.62793H86.09534V20.55527Zm0-14.05762h3.24218a2.75251,2.75251,0,1,1-.08789,5.502H89.57874Zm.68066,1.22461V7.36875h-.22656v.35351Zm1.7041,3.82325v-.73243h-.20215v-.31543h.20215v-.5039h-.27734V9.55136h-.45508v-.4541H90.777v-.4541h-.44141v-.4414h-.30273v.50488h.252v.31543h-.252v2.52344Zm-1.58984,4.20214v-.416h-.34082v.416Zm1.84179,2.25879h-.42871v-.4541h-.4541V17.11h-.44238v-.4541h-.4668v-.44141h-.39062v4.78223l2.18261,2.083ZM90.07092,9.67832h.15137V9.8414h-.15137Zm0,7.02832h.31543v.31543h-.31543Zm.0752.98437h.15137v.15137h-.15137Zm.56836-9.51465V7.82285H90.361v.35351Zm-.05078-.959V6.96445h-.25293v.25293ZM90.41077,9.148h.31543v.32813h-.31543Zm.40429,7.02832v-.35351h-.36621v.35351Zm-.30273-6.04394h.15137v.15137h-.15137Zm0,7.02832h.31543v.31543h-.31543Zm.08789.98437h.15137v.15137h-.15137Zm.55566-9.52734V8.277h-.35351v.34082Zm-.03808-.89551V7.46933h-.252v.25293Zm-.252,1.87989h.31543v.31543h-.31543Zm.39063,7.02832v-.35254h-.34082v.35254ZM90.941,10.58652h.15137v.15137H90.941Zm.02539,7.01563h.31543v.32812h-.31543Zm.07617.98437h.16309v.15137H91.0426ZM91.61,9.07187V8.71836h-.35352v.35351Zm-.30274.98438h.32813v.31543h-.32813Zm.29-2.83887V6.96445h-.252v.25293Zm0,.94629V7.91074h-.252v.25293Zm.11328,8.92187V16.732H91.358v.35351Zm-.31543-6.05761h.15137V11.192h-.15137Zm.0127,7.02929H91.736v.31543h-.32812Zm.08886.98438h.15137V19.193H91.4967ZM91.9635,9.526V9.17343h-.25293V9.526Zm.08789-1.80371V7.46933h-.25195v.25293Zm.11426,9.80469v-.34082h-.35352V17.527Zm-.08887-8.87109V8.40293h-.25195v.25293Zm-.21484,9.85547h.31543v.31543h-.31543Zm.08887.97168h.15136v.16406h-.15136Zm.58007-11.31934V7.91074h-.25195v.25293Zm-.03711-.98438V7.00254H92.317v.17675Zm.23926,4.36622a2.29807,2.29807,0,0,0,2.42285-2.335H92.4176v2.335Zm.27735-2.88965V8.40293h-.252v.25293Zm-.0625-.97168V7.50742h-.17676v.17676Zm.46679.4414V7.96152h-.16406v.16406ZM93.38928,7.192V7.066h-.126v.126Zm.51758,1.42578V8.441H93.7301v.17676Zm-.03809-.97168v-.126h-.126v.126Zm.4795.4541v-.126h-.126v.126Zm.47949.49219v-.126h-.126v.126Zm4.61816,7.9502h-.11328v-.20215l-.0625-.11328h-.45508v-.44141H98.361v-.417h-.46679v-.36524h-.4795v-.3789h-.49218V14.1832h-.27735l-.13867.08789.20117.36621h.16406V14.94l.08887.16406v-.07617h.37891v.3789h-.21485l.4795.88379h.10058v.17578l2.47363,4.53028,3.07911,2.00683Zm-2.05664-2.58692v-.27734h-.08789l-.18945.16406v.11328Zm.07617,1.47656h.34082V15.773h-.34082Zm.44141-1.89257v-.35352H97.819l-.26563.26465v.08887Zm-.06348.87011v-.27734h-.26464v.27734Zm.10157,1.45117h.30273v.30274H97.945Zm2.24609-.94628v-.40332H100.57l.11328-.15137v-.26563h.18945a5.17934,5.17934,0,0,0,.5166-1.05957h-.18847v-.21484h.22656v.10059a4.478,4.478,0,0,0,.22754-1.41309c0-1.80469-.55567-2.90234-2.58692-4.89649a5.1143,5.1143,0,0,1,.53028,2.38575,4.98226,4.98226,0,0,1-.127,1.14843h.127v.16407H99.4342a6.311,6.311,0,0,1-.3916,1.123h.16407v.29h-.29v-.05078l-.11426.21485v.32812H98.6012l-.21485.30273v.17676h-.13867l-.27734.34082v.08789h.42871v-.416h.4414v.4414h-.416v.416h.416v-.40332h.44141v.44141h-.416v.417h.42872v-.417h.44238v.4414H99.32v.42969h.42968v-.417h.42871v.44238h-.40429v.416Zm-2.2207,1.7539h.20117v.20215h-.20117Zm.39062-2.6875v-.35351h-.35351v.35351Zm-.0498.87012v-.26465h-.27832v.26465Zm.10058,1.40137h.27735v.27734h-.27735Zm.39063-1.81739v-.35351h-.33985v.35351Zm-.02442.8584v-.29h-.30371v.29Zm-.26562,1.72852H98.651v.13867h-.13867Zm.36621-4.73242h.36621v.36621h-.36621Zm.37891,2.59961v-.35352h-.35352v.35352Zm-.05078.85839.03808-.02539v-.27734h-.31543v.30273Zm-.252.88282H99.194v.24023h-.23926Zm.37793-3.88575h.36621V13.11h-.36621Zm.37891,2.58692v-.35352H99.358v.35352Zm-.34082-3.458h.29v.30273h-.29Zm.02539-.8584h.22656v.22754h-.22656Zm.0498,5.96875h.20215v.20215h-.20215Zm.32813-3.78515h.3789v.36523h-.3789Zm.03808-.8711h.30274v.30274h-.30274Zm.03809-.8584h.22754v.22754h-.22754Zm.03809-.87011h.15136v.16406h-.15136Zm.02539-.8711h.11328V9.8414H99.9137Zm.31543,3.91211h.36523v.36621h-.36523Zm.03711-.8584h.291v.29h-.291Zm.03808-.87011h.22754v.22656h-.22754Zm.02539-.8584h.16406v.15136h-.16406Zm.02539-.88379h.11328v.11426h-.11328Zm.35352,3.05469h.30273V13.527h-.30273Zm.03711-.8584h.22754v.22656h-.22754Zm.03808-.8711h.15137v.16407h-.15137Zm.02539-.87011h.11329v.11328h-.11329Zm.42872,1.32422h.15136v.15234h-.15136Zm.02539-.87012h.10156v.10058h-.10156Z" style="fill:#17314f"/><path d="M107.17542,20.52988l-1.67872-1.665a9.57363,9.57363,0,0,1-2.94043-6.89062,9.44642,9.44642,0,0,1,9.46485-9.43848,9.75187,9.75187,0,0,1,6.90234,2.95215l2.06934,2.083a9.4589,9.4589,0,0,1-6.58692,16.25293C111.55432,23.82383,109.58557,22.91562,107.17542,20.52988Zm13.85546-8.55566a9.01025,9.01025,0,1,0-9.00976,9.01074A8.98565,8.98565,0,0,0,121.03088,11.97422Zm-14.41113,0a5.40367,5.40367,0,1,1,10.80176,0,5.40454,5.40454,0,1,1-10.80176,0Zm2.25879,2.13281a5.886,5.886,0,0,1,.22754-1.65332h-.06348v-.21387h.13867a5.81253,5.81253,0,0,1,.4795-1.06055h-.22657v-.31543h.31543v.17676c.0625-.10058.126-.20215.18946-.29h-.08887v-.36621h.37891l.03808-.03808V9.91758h.416V9.47617h-.42871v.416h-.42969v-.416h.417V9.03379h-.44238v.417h-.416V9.02207h.416V8.59238H109.358v.417h-.416V8.57968h.416v-.4414h-.4414v.416h-.42871l-.0127-.20117-.21484.252h.17675v.36621h-.36621v-.126l-.16406.23926h.06348V9.4h-.25293a4.881,4.881,0,0,0-.42871,1.06054h.18945v.21387h-.21484v-.13867a5.35785,5.35785,0,0,0-.18946,1.43848,5.11723,5.11723,0,0,0,2.22168,4.35351A5.43617,5.43617,0,0,1,108.87854,14.107Zm-1.58984-2.72559h.16406v.16407h-.16406Zm.01269.90821h.126v.127h-.126Zm.37891-2.2959h.26465v.26465h-.26465Zm.02441.9209h.21485v.21484h-.21485Zm.02539.9082h.16407v.16406h-.16407Zm.0127.90918h.126v.126h-.126Zm.35351-3.20606h.31543V9.8414h-.31543Zm.02539.92188h.26465v.25195h-.26465Zm.02539.9082h.21387v.21485h-.21387Zm.0254.90821h.16406V12.441h-.16406Zm.02441.90917h.12695v.126h-.12695Zm.31543-4.11425h.37891v.36621h-.37891Zm.03809.90918h.30273v.31543h-.30273Zm.02539.9209h.25195v.25195h-.25195Zm.02539.9082h.20214v.21484h-.20214Zm.01269.90918h.17676v.17676h-.17676Zm.02539.9209h.126v.126h-.126Zm.26465-5.48926V7.96152l-.20215.17676Zm.06348,1.36328h.36523v.36523h-.36523Zm.02441.9082h.31641v.31543h-.31641Zm.02539.9209h.26563v.26563h-.26563Zm7.9502.64356a5.43547,5.43547,0,0,0-.4668-2.25879,3.41265,3.41265,0,0,0-2.2207-.73145,4.97214,4.97214,0,0,0-4.94727,5.123,4.01527,4.01527,0,0,0,.71973,2.625,4.98342,4.98342,0,0,0,6.915-4.75781Zm-7.20508-3.86133V7.735h-.37891v.37793ZM109.40881,9.943h.36621v.36621h-.36621Zm.80762-1.38868V8.17636h-.37891v.37793Zm-.03809-.92089V7.318h-.26464l-.05078.02539v.29Zm.4795,1.36328V8.61777h-.37891v.37891Zm-.03809-.92188V7.75937h-.31543V8.0748Zm-.02441-.9209V7.05332l-.25293.08789V7.1539Zm.5039,2.28418v-.3789h-.37793v.3789Zm-.02441-.9209V8.20176h-.32813v.31542Zm-.03809-.90917V7.34336h-.25293V7.608Zm.4795,1.36328V8.64316h-.31543v.32813Zm-.0254-.9209V7.78476h-.26464v.26563Zm-.03808-.92188V6.92734h-.18945v.20117Zm.417,1.96875h-.22754v.126Zm.0625-.60547V8.23886h-.26465v.25293Zm-.03808-.92089V7.38144h-.18848V7.5709Zm.32812,1.3623.15234-.0625V8.68125h-.25293V8.9332Zm.12695-.9209V7.82285h-.20215V8.0123Zm-.03808-.9209V6.96445h-.126V7.0914Zm.47949,1.375V8.26426h-.20215V8.4664Zm-.03809-.92089V7.40683h-.126v.13868Zm.07618,14.30957v-.11329h-.11426v.11329ZM113.194,7.98691v-.126h-.126v.126Zm.08887,13.43945v-.07617l-.13867.02539v.05078Zm-.0127.87012V22.1832h-.11328v.11328Zm.37891-13.86816v-.126h-.13965v.126Zm.07519,13.43945V21.7291h-.13867v.13867Zm-.02539.87109v-.11425h-.10058v.11425Zm.47949-1.2871V21.275h-.17675v.17676Zm-.01269.85742v-.13867h-.15137v.13867Zm-.02441.87109V23.067h-.10157v.11328Zm.47949-1.2998V21.7164H114.444v.16407Zm-.02539.87109v-.13965h-.13867v.13965Zm.47949-1.28711V21.2623h-.20215v.20215Zm-.0127.85742v-.16406h-.17675v.16406Zm-.02539.8711v-.13868h-.13867V23.193Zm.49219-2.15821V20.8082h-.10059c-.05078.0127-.08886.03711-.13964.04981v.17675Zm-.01269.8711v-.20215h-.20215v.20215Zm-.0254.85742v-.16309h-.16406v.16309Zm.4795-1.28711v-.23926h-.23926v.23926Zm-.0127.87109v-.21484h-.21387v.21484Zm-.02539.8584V23.0289h-.16308v.17676Zm.07617-2.56152v-.08887l-.18945.08887Zm.416.40332v-.26465h-.26465v.26465Zm-.01172.87109v-.24023h-.24023v.24023ZM116.4,22.776V22.5748h-.21484V22.776Zm.4795-2.14453v-.30273h-.30274v.30273Zm-.0127.85742v-.26464h-.26562v.26464Zm-.01269.8711v-.24024h-.24024V22.36Zm-.02539.68164v-.02539h-.20215v.07519Zm.50488-2.83984v-.32813h-.10156l-.22657.15137v.17676Zm-.0127.87109v-.30274h-.30273v.30274Zm-.01269.8584v-.26563h-.26465v.26563Zm-.0127.87011v-.23925h-.23926v.23925Zm.50489-3.01562v-.31543l-.36622.26465v.05078Zm-.0254.8584V20.316h-.32812v.32813Zm-.01269.87012v-.30274h-.30274v.30274Zm-.0127.85839V22.108h-.27734v.26464Zm.4795-2.1455v-.36622h-.36524v.36622Zm-.0127.85839v-.32812h-.32812v.32812Zm-.01269.87012v-.30273H117.901v.30273Zm-.03711.59375h-.25293v.11328Zm.08789-3.19238V19.1041l-.31543.25293Zm.42871.4414v-.3916h-.39063v.3916Zm-.01172.8584v-.35351h-.36621v.35351Zm-.0127.87012v-.32812h-.32812V21.527Zm-.15136.8584.13867-.07617v-.21387h-.30274v.29Zm.20117-3.458v-.252l-.26465.252Zm1.7539,1.7666v-.42871h.44239v.35352l.34082-.36621h-.32813v-.40332h.40332v.31543l.29-.36622h-.22656v-.3789h.36523V19.609l.18946-.27734h-.10059v-.32813h.31543l.13867-.24023v-.18945h.10059a9.89722,9.89722,0,0,0,.48047-1.04688h-.11426v-.24023h.18945a8.40571,8.40571,0,0,0,.30274-1.11036h-.0127v-.17675h.05078c.03809-.23926.06348-.4795.08789-.71875h-.126v-.15137h.13867c.01269-.21484.02539-.42969.02539-.64356a9.12491,9.12491,0,0,0-3.10449-6.99121,9.46484,9.46484,0,0,1,1.17383,4.4668,9.58812,9.58812,0,0,1-.39063,2.70117h.13867v.21387h-.20215a9.88981,9.88981,0,0,1-.416,1.07324h.20117v.27735h-.26465v-.15137l-.15137.30273v.30274H120.236a9.60551,9.60551,0,0,1-.98437,1.40039h.31543v.40429h-.4043V18.1832l-.29.32813h.26563V18.94h-.417v.42968h.42969v-.417h.42871v.42871h-.417v.42969h.42969v-.417h.42871v.42969h-.42871v.42871h.42871v-.416h.4414v.42871h-.42871v.42871Zm-1.33691-.4541v-.40332h-.3916v.40332Zm-.01269.8584V20.732h-.36622v.36621Zm-.0127.87012v-.33985h-.32813v.33985Zm.4668-1.28711v-.40332h-.3916v.40332Zm-.0127.8584v-.36622h-.36621v.36622Zm.05078-3.01563h.40332v.40332h-.40332Zm.0127-.8584h.36523v.36621h-.36523Zm.39062,3.458v-.4043h-.39062v.4043Zm-.252.49219h-.126v.08789Zm.29-2.65039h.4043v.40429h-.4043Zm.01269-.8584h.36622v.36621h-.36622Zm.26465,3.05371h-.26465v.22754Zm-.25195-3.92383h.34082v.34082h-.34082Zm.40332,2.16992h.417v.4043h-.417Zm.34082,1.29981h-.34082v.32812Zm-.31543-2.16992h.36621v.37793h-.36621Zm.0127-.8584h.34082v.34082h-.34082Zm.01269-.8711h.31543v.31543H120.526Zm.416,2.1709h.36621V19.357H120.942Zm.01269-.8584h.34082v.34082h-.34082Zm.0127-.87011h.31543V17.565h-.31543Zm.02539-.8584h.26562v.27734h-.26562Zm.01269-.8711h.24024V15.773h-.24024Zm.3916,3.042h.34083V18.902h-.34083Zm.0127-.8711h.30273v.31543h-.30273Zm.0127-.8584h.27734V17.11h-.27734Zm.02441-.87011h.24023v.25195h-.24023Zm.01269-.8584h.21485v.21484h-.21485Zm.0127-.87109h.17676v.17675h-.17676Zm.0127-.85743h.15136v.13868H121.485Zm.02539-.87109h.11328v.11328h-.11328Zm.34082,5.62793h.30273v.30273h-.30273Zm.01269-.8584h.27735v.26563h-.27735Zm.0127-.87012h.252v.23926h-.252Zm.02539-.85839h.21386v.20214H121.902Zm.01172-.87012h.17675v.17578h-.17675Zm.01269-.8584h.15137v.13867h-.15137Zm.02539-.87109h.11426v.11425h-.11426Zm.35352,4.7705h.27734v.26465h-.27734Zm.01269-.87109h.252v.24023h-.252Zm.02539-.8584h.20215v.20215h-.20215Zm.0127-.87012h.17676v.17676h-.17676Zm.01269-.85839h.15137v.13867h-.15137Zm.02442-.87012h.11426v.11328h-.11426Zm.3916,3.02832h.20215v.21387h-.20215Zm.0127-.8584h.17675V15.735h-.17675Zm.01269-.87109h.15137v.15234h-.15137Zm.0127-.85743h.11328V13.943h-.11328Zm.4414.44141h.11328v.11328h-.11328Z" style="fill:#17314f"/><path d="M127.18909,20.89609l-5.3252-18.00683h4.60547l3.28125,2.61132L130.735,9.3375l1.72851-6.44824h5.3252l3.26855,2.61132,1.05957,3.91211,1.65332-6.52343h4.53028l2.27148,2.6875-5.3125,17.94433h-3.84863l-2.61231-2.6123-2.18359-7.44532-2.95215,10.05762h-3.84961Zm4.01269-.34082,3.97461-13.62793L139.152,20.55527h3.64648L147.8717,3.34336h-3.748L140.944,15.9625,137.53674,3.34336H132.817L129.40979,15.9625,126.21741,3.34336h-3.74805l5.085,17.21191Zm-.71972-10.30957-1.13575-4.49219-2.54882-2.04492,2.63769,10.46192Zm2.90234,12.65723h-.126v-.3916h.24024l.15136-.50489h-.40429v-.39062H133.65v.36523l.126-.416h-.08887v-.4043h.20215l.15137-.49219h-.35352v-.416h.417v.17675l.0625-.20214h-.03711v-.42872h.16406l.126-.46679h-.30274v-.44238h.44141v-.44141h-.44141v.44141h-.4414v-.45411h.42871v-.42871h-.42871v.42871h-.45508v-.4541H133.65v-.42871h-.42968v.42871h-.4541v-.4414h.4414V17.11h-.4414v.42969h-.22657l-.12695.4541h.35352v.42871h-.42872V18.2457l-.06347.20215h.02539v.417h-.13867l-.15137.49219h.29v.40332h-.40332l-.05078.17676v.26465h-.07617l-.15137.51757h.21484v.37891h-.20215l.27735.32812v-.25293h.3789v.37891h-.26465l.32813.3916v-.32812h.39062v.37793H132.4l.92188,1.09765Zm-1.48828-2.6377h.40332v.3916h-.40332Zm.4414-1.36328h.416v.417h-.416Zm0,.90918h.416v.40332h-.416Zm.0127.89551h.39062v.40429h-.39062Zm.40332-3.6211v-.26562l-.0752.26562Zm.02539,1.36231h.42871v.42969h-.42871Zm.0127.90918h.416v.416h-.416Zm0,.89551h.40332v.416h-.40332Zm.01269.9082h.39063v.3916h-.39063Zm0,.90918h.37891v.37793h-.37891Zm.37891-5.45117v-.3916h-.25293l-.11328.3916Zm-.0127-.92188v-.29l-.08886.29Zm.4668,1.376v-.4043h-.4043v.4043Zm-.4043,1.81641h.42969v.44238H133.233Zm0,.90917h.417v.416h-.417Zm.0127.90821H133.65v.40429h-.40429Zm.3789-4.55567v-.36523h-.36621V16.151Zm-.02539-.92089V14.902h-.27734l-.05078.15137v.17676Zm-.01269-.90821v-.32812l-.10059.32812Zm.08887,5.02246h.4414V19.773h-.4414Zm.416-1.83007v-.39161h-.4043v.39161Zm-.02539-.90821v-.36621h-.36621v.36621Zm-.0127-.92187v-.32813h-.32812v.32813Zm-.01269-.90821v-.30273h-.30273V14.776Zm-.02539-.92089v-.26563h-.26465v.26563Zm-.0127-.92188v-.22656h-.0498l-.06348.22656Zm.53028,5.03516v-.39063h-.39063v.39063Zm-.0127-.9209v-.35352h-.36523v.35352Zm-.01269-.9082v-.32813h-.34082v.32813Zm-.02442-.92188v-.29h-.291v.29Zm-.01269-.9082v-.26563h-.26563v.26563Zm-.0127-.9209v-.22754h-.24023v.22754Zm-.03808-.92188v-.17675h-.17676v.17675Zm-.02539-.92089v-.126h-.06348l-.03711.126Zm.30273,6.877.11328-.40332h-.22656v.40332Zm.26562-.9209v-.36621H134.609v.36621Zm-.01269-.9209v-.32812h-.32813v.32812Zm-.0127-.90918v-.30273h-.30273v.30273Zm-.01269-.9209v-.26465h-.26563v.26465Zm-.02539-.9082v-.24023h-.22754v.24023Zm-.02539-.92187V12.732h-.18946v.18848Zm-.03809-.9209v-.126h-.126v.126Zm.26563,5.03515.08789-.32812h-.11328v.32812Zm.26464-.9209.0254-.08886v-.20215h-.30274v.291Zm0-.90918V14.94h-.26464v.26464Zm-.01269-.92089v-.22754h-.22656v.22754Zm-.02539-.90821v-.18945h-.18945v.18945Zm-.03711-.93457v-.126h-.12695v.126Zm.29,2.92774h-.05078v.126Zm.18945-.63086.02442-.10059v-.126H135.568v.22656Zm0-.9209v-.17676h-.17676V13.817Zm-.03808-.9209v-.12695h-.126v.12695Zm.4541.4541v-.126h-.126v.126Zm5.7041-3.02832L140.653,5.75351l-2.53613-2.03222,2.80176,10.44922Zm3.041,12.74512.0752-.26563h-.23926v-.32812h.32813v.03809l.31543-1.04688h-.20215v-.35352h.30273l.29-.98437h-.16406v-.36621h.26562l.29-.98438h-.11328V18.398h.22656l.15137-.51757h-.37793v-.37891h.39063v.35352l.12695-.417h-.07617v-.39062h.18945l.15137-.50488h-.34082v-.40332h.40332V16.315l.06348-.21387h-.0254v-.417h.15137l.13867-.4795h-.29V14.776h.417l.02539-.08886v-.36524h.11328l.126-.4541h-.23926v-.44238h.37793l.06347-.22656v-.22754h.0625l.13965-.45411h-.20215v-.4414h-.4541V11.6207h-.44238v-.4541h.44238v-.44141h-.44238v.44141h-.4541v-.44141h-.32813l-.11328.4043v.03711h-.01269l-.13868.4541h.13868v.44238H145.777l-.13965.4668h.4043v.42871h-.42871v-.34082l-.11426.36621h.08886V13.4h-.20214l-.15137.47949h.35351v.417h-.417V14.107l-.07519.24023h.03808v.39063h-.15136l-.15235.50488h.291v.3916h-.3916v-.03808l-.06348.21484v.27734h-.0752l-.16406.51758h.23926V16.984h-.35254l-.10156.36621v.07617h-.02539l-.15137.5293h.17676v.36621h-.29l-.29.99707h.11328v.34082h-.21484l-.30274,1.00879h.06348v.32813h-.15137l.27735.31543v-.18848h.32812v.32813h-.21484l.32812.39062v-.26465h.32813v.32813h-.26465l.98437,1.16113Zm-1.52734-2.85254h.34082v.34082h-.34082Zm.44238-1.34961h.35254v.35254h-.35254Zm.01172.89551h.34082v.35351H143.858Zm0,.9082h.34082v.34082H143.858Zm.42969-3.167h.37793v.37891h-.37793Zm.0127.9082h.35351V18.776h-.35351Zm0,.89649h.35351v.36621h-.35351Zm0,.9082h.35351v.34082h-.35351Zm.01269.90918h.32813v.32813h-.32813Zm0,.89551h.32813v.32812h-.32813Zm.416-5.86817h.3916v.37891h-.3916Zm.01269.89649h.37891v.3789h-.37891Zm0,.9082h.36621v.36621h-.36621Zm0,.90918h.36621v.35254h-.36621Zm0,.89551h.36621v.35351h-.36621Zm.0127.9082h.34082v.34082h-.34082Zm0,.89649h.34082v.34082h-.34082Zm.416-6.77637h.4043V15.192h-.4043Zm0,.9082h.4043v.3916h-.4043Zm.0127.89649h.3789V16.984h-.3789Zm0,.9082h.3789v.37891h-.3789Zm0,.89648h.3789V18.776h-.3789Zm.01269.90821h.36621v.36621h-.36621Zm0,.9082h.35352V20.568h-.35352Zm.417-6.77637h.416v.417h-.416Zm0,.89649h.416v.416h-.416Zm.01269.9082h.40332v.4043h-.40332Zm0,.89649h.40332v.40332h-.40332Zm.01172.9082h.37891v.39062h-.37891Zm0,.9082h.37891v.37891h-.37891Zm0,.89649h.37891v.37793h-.37891Zm.417-7.68555h.44141v.4541h-.44141Zm0,.90918h.44141v.4414h-.44141Zm0,.9082h.44141v.42871h-.44141Zm.0127.89551h.416v.42969h-.416Zm0,.90918h.416v.416h-.416Zm.01269.89551h.39063v.40429h-.39063Zm0,.90918h.39063V16.984h-.39063Zm.416-6.32227V9.82968h-.0625l-.127.44141Zm.4414.44141v-.42871h-.4414v.42871Zm-.4414.9082h.4541v.44238h-.4541Zm.4414-1.80371V9.3873h-.36523l-.06348.20215V9.817Zm-.42871,2.71289h.42871v.42871h-.42871Zm0,.89551h.42871v.42969h-.42871Zm0,.90918h.42871v.416h-.42871Zm.0127.89551h.40332v.417h-.40332Zm.416-6.32227v-.416h-.10058l-.126.416Zm.0127,3.168h.44238v.4414h-.44238Zm0,.89551h.44238v.4414h-.44238Zm.42969-4.51758v-.416h-.417v.416Zm0,.9082V8.9332h-.417v.42871Zm.01269.89649V9.82968h-.42969v.42872Zm-.42969,3.62109h.42969v.42969h-.42969Zm.417-6.32129v-.417h-.15137l-.11426.417Zm.4541,2.24609v-.417h-.42871v.417Zm0,.90821v-.42871h-.42871v.42871Zm.35351,1.35058.10059-.36621V11.6207h-.44141v-.44141h-.4414v.44141h.4414v.44238Zm-.78222.4541h.4414v.45411h-.4414Zm.416-4.51757v-.4043h-.40429v.4043Zm.0127.9082v-.416h-.417v.416Zm-.0127-1.80469V6.6998h-.3916v.40332Zm0-.9082v-.3916h-.18945l-.11328.3916Zm.0127-.88281V5.12265l-.06348.18946Zm.4414,4.03808V8.9459h-.416v.40429Zm.0127.90821v-.417H147.859v.417Zm0,.9082v-.44141H147.859v.44141ZM148.26233,6.649V6.2584h-.39063V6.649Zm.01269.89649V7.1539h-.40332v.39161Zm0,.9082V8.05039h-.40332v.40332Zm-.01269-2.71289V5.36191h-.37793v.37891Zm0-.90821V4.4664h-.23926l-.10156.36621Zm0-.89648V3.65879l-.0752.27734Zm.05078,7.67285.126-.42969h-.13867V11.609Zm.416-2.71387V8.49179h-.416v.40332Zm0,.90918v-.417h-.416v.417Zm-.15137.90821.126-.42871h-.39063v.42871Zm.13867-4.51758v-.3916h-.39062v.3916Zm0,.89648V6.6998h-.39062v.3916Zm0,.90821v-.4043h-.39062v.4043Zm-.01269-3.62207V4.0748l-.03711-.0498h-.32813v.35254Zm0,.90918V4.92051h-.36524v.36621Zm.46777,3.15429V8.05039h-.4043V8.441Zm-.18945.90918.126-.40429h-.34082v.40429Zm-.13868.49121h-.07617v.24024Zm.31543-4.10058V5.36191h-.3789v.37891Zm0,.89551V6.2584h-.3789v.37793Zm.0127.90918V7.1539h-.3916v.39161Zm-.0127-2.7129V4.60508l-.12695-.13868h-.23926v.36621Zm.22657,3.167.11425-.3916h-.27832v.3916Zm.21484-2.71289V5.12265l-.17676-.20214H149.234v.36621Zm0,.8955V5.816H149.234v.36621Zm.0127.90918V6.7125H149.234v.3789Zm.4414-1.36328V5.66465l-.25195-.30274h-.11426v.36621Zm-.26465.90821.10059-.37793h-.20215v.37793Z" style="fill:#17314f"/><path d="M163.27405,20.90879,161.3053,18.94a9.652,9.652,0,0,1-2.94043-6.915,9.355,9.355,0,0,1,9.56543-9.48926,10.4071,10.4071,0,0,1,5.17383,1.22363l2.51171,2.54883V10.649a9.55631,9.55631,0,0,0-4.94726-1.74121c-3.30566,0-5.40039,1.99414-5.40039,5.07324a3.96256,3.96256,0,0,0,.75683,2.66211,6.44528,6.44528,0,0,0,2.53614.47949,8.91027,8.91027,0,0,0,4.36621-1.16015l2.68847,2.6875v4.21484a12.71326,12.71326,0,0,1-5.14941.959A9.79253,9.79253,0,0,1,163.27405,20.90879Zm9.376-.833V16.60605a9.16357,9.16357,0,0,1-4.08886.97168c-3.57129,0-5.98145-2.28418-6.00684-5.666,0-3.43262,2.335-5.59082,5.85547-5.59082A8.91483,8.91483,0,0,1,172.65,7.36875V4.0123a10.57326,10.57326,0,0,0-4.71972-1.02246A8.89561,8.89561,0,0,0,158.819,12.025a8.846,8.846,0,0,0,9.09863,8.96A11.6858,11.6858,0,0,0,172.65,20.07578Zm-7.83691-6.09473a6.77517,6.77517,0,0,1,.12695-1.27441h-.12695v-.16406h.15137a5.52906,5.52906,0,0,1,.40429-1.13575h-.16406v-.26562h.26465v.06347l.16406-.29v-.25293h.17676l.24024-.31543v-.15137h.13867l.29-.29V9.71543h.21484l.20117-.15137v-.29h-.4414V9.69H166.025V9.26133h.42872V8.81992h-.45411v-.4541h-.4414v.42871h-.42969V8.36582h.417V7.92343h-.4414v.417h-.42969V7.97422a3.96612,3.96612,0,0,0-.82031.89648h.30273v.31543h-.32812V8.90781a3.17173,3.17173,0,0,0-.26465.44238h.11328v.26465h-.23926a5.31,5.31,0,0,0-.34082,1.12305h.08789v.17676h-.11328a6.75977,6.75977,0,0,0-.0625.8955,4.94883,4.94883,0,0,0,2.2207,4.417A5.10455,5.10455,0,0,1,164.81311,13.98105Zm-1.7793-2.32226h.127v.126h-.127Zm.4043-1.3877h.21484v.21484h-.21484Zm.02539.9209h.16406v.16406h-.16406Zm.0127.9209h.126v.12695h-.126Zm.39062-2.32129h.25293v.26465h-.25293Zm.0127.9209h.21484V10.94h-.21484Zm.02539.93359h.17676v.16406h-.17676Zm.02539.92188h.126v.126h-.126Zm.32812-4.17774h.36621v.37891h-.36621Zm.02539.92188h.31543v.32812h-.31543Zm.02539.93359h.26465v.26465h-.26465Zm.02442.9209h.21484v.21484h-.21484Zm.02539.92187h.16406v.17579H164.359Zm.02539.9209h.126v.126h-.126Zm.31543-4.16406h.37891v.36523h-.37891Zm.03809.9209h.31542v.31543h-.31542Zm.36621-1.85547V7.65879a3.596,3.596,0,0,0-.35352.25195Zm-.34082,2.78906h.26464v.25293h-.26464Zm.02539.9209h.21386v.21484h-.21386Zm.36523-2.334h.37891v.3789h-.37891Zm.02539.93359h.31543v.31543h-.31543Zm.78223-2.334V7.50742h-.37793v.37891Zm-.37793.93359h.416v.416h-.416Zm.02441.9209h.36621V10.107H165.608Zm.80762-1.40039v-.3916h-.37793v.3916Zm-.02441-.9336V7.07871h-.05079l-.27734.10058v.22754Zm.47949,1.375v-.3789h-.3916v.3789Zm-.03809-.9209V7.53281h-.31543v.32812Zm.47949,1.375V8.84531h-.3789v.39062Zm-.02539-.93359V7.98691h-.32812v.31543Zm-.02539-.93359V7.11582h-.26465v.25293Zm.47949,1.38769V8.42832h-.32812v.32812Zm-.03808-.93359V7.5582h-.26465v.26465Zm-.02442-.93359V6.81308l-.20214.0127v.06348Zm.49219,1.99316V8.858h-.31543v.15136Zm-.01269-.60547V8.0123h-.26563V8.277Zm-.03809-.93359V7.14121h-.18945v.20215Zm.47949,1.375v-.252h-.252v.252Zm-.02539-.9209V7.59531h-.20215v.20215Zm-.05078-.9209V6.775h-.126v.10156Zm.49219,1.3623V8.05039h-.18848v.18847Zm-.02442-.93359v-.126h-.13964v.126Zm.4795,1.23731V8.49179h-.20215v.08789Zm-.03809-.78321V7.6207h-.13867v.13867Zm.4541.45508V8.0748h-.13867v.13965Zm.23926,13.58984v-.126h-.11328v.126Zm.49219-.4414v-.16406h-.11328l-.0625.01269v.15137Zm-.02442.89648v-.11426h-.11425v.11426Zm.49219-.42969v-.17675h-.17676v.17675Zm-.02539.89649v-.126h-.12695v.126Zm.51758-1.33789v-.22754h-.24024v.22754Zm-.03809.89551V22.108h-.16406v.17578Zm-.02539.89648V23.067H171.401v.11328Zm.543-2.2207V20.8082l-.27734.08789v.06348Zm-.02539.89551v-.22657h-.22754v.22657Zm-.02539.89648V22.5748h-.17676v.17676Zm.51758-1.33789v-.27734h-.29v.27734Zm-.02539.9082v-.23926h-.23926v.23926Zm-.02539.89649V23.0416h-.17676v.17676Zm.53027-2.2334v-.34082h-.32812V20.985Zm-.02539.89551v-.27735h-.27734v.27735Zm-.02539.8955v-.22656h-.22656V22.776Zm2.209-16.291-2.05761-2.082V7.91074l2.05761,1.94336Zm0,12.3418-2.05761-2.05665v3.57032l2.05761,2.1455Zm-1.6914,2.625v-.34083h-.34082v.34083Zm-.02539.8955v-.29h-.27735v.29Zm-.02539.74414v-.07519H173.193v.11328Zm.51757-1.18554v-.32813h-.34082v.32813Zm-.02539.8955V22.524h-.29v.27734Zm.4795-.42871v-.34082h-.32813v.34082Zm.46679.34082v-.21484h-.33984v.31543Z" style="fill:#17314f"/><path d="M176.26038,20.83261l6.65039-17.94335H187.984l3.39453,2.59863,6.7002,18.0332h-4.98438l-3.11621-2.59961-.32813-.93359h-5.60351l-1.22363,3.5332h-4.15137Zm4.35449-.27734,1.22363-3.5332h7.26856l1.22363,3.5332h3.82422L187.75647,3.34336h-4.51758l-6.39746,17.21191Zm1.87988,2.51172.08789-.26563h-.15137v-.35351h.27832l.33985-.9834H182.861v-.37891h.31543l.10059-.27734v-.20215h.07617l.126-.3916H183.277v.3916h-.4541V20.152h-.44141v-.44238h-.45508v-.4541h.3916v-.39063h-.3916v.39063h-.37793l-.07617.22754v.21386h-.0752l-.16406.49219h.20117V20.568h-.33984l-.11426.32812v.16406l.10157.13868v-.10059h.35253v.35352h-.16406l.25293.32812v-.22754h.35352v.35352H181.611l.8711,1.16113Zm-.98437-3.332h.3916v.3916h-.3916Zm.01269.90918h.36621v.36523h-.36621Zm.34082-1.84278v-.3789h-.02539l-.126.3789Zm.10059,1.3877h.3789V20.568h-.3789Zm0,.90918h.3789v.36621h-.3789Zm.01269.89551h.35352V22.36h-.35352Zm.27735-3.71v-.252h-.26465v.252Zm.50488,1.41308v-.37793h-.37793v.37793Zm-.35352.93457h.39161v.39063h-.39161Zm.0127.90821h.36621v.36621h-.36621Zm.291-2.80176v-.26465H182.444v.26465Zm.22657-1.03418v-.22754h-.30274v.22754ZM185.485,6.51035l2.77636,7.50879H182.6969ZM183.2135,20.152V19.773h-.37793V20.152Zm-.0625-.959v-.26563h-.25293V19.193Zm.25195-1.02246v-.29h-.30273v.29Zm.20215,1.46386v-.25293h-.26465v.25293Zm.24024-6.07031V13.11h.42871v-.44141h-.44141V12.277l-.15137.3916h.15137V13.11h-.31543l-.12695.35351v.10059Zm.03711,5.08594v-.30274H183.567V18.65Zm.01269-.94629v-.22754h-.30273v.22754Zm.36621-5.51465v-.4043h-.25195l-.15234.4043Zm.0752,6.92773v-.30273h-.30274v.30273Zm.02539-.94628v-.29h-.30274v.29Zm-.0752-6.877v-.26562l-.10156.26562Zm.44141,2.27051v-.44141h-.44141v.44141Zm-.0127-.9209v-.40332h-.40332v.40332Zm-.01269-.9209v-.36621h-.36621v.36621Zm-.02539-.90918v-.33984h-.17676l-.126.33984Zm.13965,8.71973v-.252h-.30371v.252Zm.02441-.88281v-.30274H184.526V18.65Zm0-.94629v-.22754h-.30273v.22754Zm.31543-4.60645v-.40332h-.40332v.40332Zm-.01172-.9209v-.36621h-.36621v.36621Zm-.02539-.92089v-.32813h-.32812v.32813Zm-.01269-.90918v-.30274h-.30274v.30274Zm-.02539-.9209v-.252h-.10059l-.08887.252Zm.21484,9.6914v-.30273h-.30371v.30273Zm.01172-.94628v-.29h-.30274v.29Zm.30371-4.63086v-.4043h-.4043v.4043Zm-.02539-.90918v-.36621h-.36621v.36621Zm-.0127-.9209v-.32813h-.32812v.32813Zm-.01269-.9209v-.291h-.30274v.291Zm-.03809-.90918v-.252h-.25195v.252Zm-.01269-.93359V8.74375h-.20215V8.9459Zm.27832,9.7041v-.30274h-.31641V18.65Zm-.0127.88281v-.252h-.30371v.252Zm.0127-1.8291v-.22754H185.485v.22754Zm.07519-4.63184.126-.36523h-.31543v.36523Zm.16406-.9082v-.34082h-.34082v.34082Zm-.02539-.9209V10.94h-.29v.30273Zm-.02539-.9209v-.25293h-.25195v.25293ZM185.95178,9.4V9.19785h-.20117V9.4Zm.291,9.71679v-.30273h-.30274v.30273Zm.01269-.94628v-.29h-.30371v.29Zm-.01269-8.30372-.07617-.20117h-.05079v.20117Zm.126,1.83008.0879-.22754v-.07519h-.30274v.30273Zm1.23633,1.86719-.71875-1.95508-.71972,1.95508ZM186.43225,10.776V10.523h-.25293V10.776Zm.30274,7.874v-.30274h-.31543V18.65Zm-.0127.88281v-.252h-.30273v.252Zm.0127-1.8291v-.22754h-.30274v.22754Zm.4541,1.41308v-.30273h-.30274v.30273Zm.01269-.94628v-.29h-.30273v.29Zm.47949.47949v-.30274h-.31543V18.65Zm-.01269.88281v-.252h-.30274v.252Zm.01269-1.8291v-.22754h-.30273v.22754Zm.45411,1.41308v-.30273h-.30274v.30273Zm.01269-.94628v-.29h-.30273v.29Zm.47949.47949v-.30274h-.31543V18.65Zm-.01269.88281v-.252h-.30274v.252Zm.01269-1.8291v-.22754h-.30273v.22754Zm2.37207-11.9375-2.58691-1.99414,6.39844,17.2373,2.59961,2.01953Zm-1.918,13.35058v-.30273h-.30274v.30273Zm-.0625-.94628-.10157-.29h-.126v.29Zm.47949,1.3623-.08887-.252h-.15137v.252Z" style="fill:#17314f"/><path d="M198.233,20.8707V2.88926h4.30371L205.31213,5.526V16.79453h4.8711l2.65039,2.65039v4.07617h-11.9502Zm11.63477-.31543V17.24961h-7.64649V3.34336h-3.53418V20.55527Zm-7.44531.63086v-.126h-.126v.126Zm.56835-17.22461V3.94883l-.30273-.29h-.01269v.30273Zm.0254.93359V4.5289h-.34082v.36621Zm.02441.9336v-.416h-.36523v.416ZM204.858,16.79453V8.99668h-.416v-.417h.416V8.11289h-.4414v-.4541h-.45411V7.20468h-.4541v-.4541h-.45508V6.29551h-.37792v.46777h.36523v.416h-.36523v.50489h.35253v.3789h-.35253v.542h.32812V8.9332h-.32812v7.86133ZM202.70081,9.526h.27734v.27832h-.27734Zm.02441.93457h.22754v.22657h-.22754Zm.02539.9209h.17676v.17676h-.17676Zm.13867,10.27149v-.126h-.126v.126Zm-.11328-9.35059h.126v.126h-.126Zm.71973-6.01855v-.417H203.066v.417Zm-.417.93359h.417v.416h-.417Zm.3916-1.86816V4.984h-.37891v.36524Zm-.36621,2.78906h.3789v.36621h-.3789Zm.34082-3.72266V4.37754l-.27735-.26465h-.05078v.30273Zm-.31543,4.64356h.32812V9.3873h-.32812Zm.02539.92187h.27734v.27735h-.27734Zm.02539.9209h.22656v.22754h-.22656Zm.02441.93359h.17676v.17676h-.17676Zm.16406,9.36329v-.15137h-.16406v.15137Zm-.02441.90918v-.127h-.12695v.127Zm-.11426-9.35157h.126v.127h-.126Zm.71973-6.01855v-.417h-.42969v.417Zm-.417.93359h.417v.416h-.417Zm.3916-1.86816V5.43808h-.36621v.36524Zm-.36621,2.77636h.36621v.37891h-.36621Zm.34082-3.71v-.0498l-.252-.25293h-.06347v.30273Zm-.31543,4.64454h.31543v.31542h-.31543Zm.01269.92089h.27735v.27735h-.27735Zm.02539.9209h.22657v.22754h-.22657Zm.02539.9209h.17676v.17676h-.17676Zm.0254.93457h.126v.126h-.126Zm.15136,8.44141v-.15137h-.15136v.15137Zm-.01269.92187v-.127h-.127v.127ZM204.40393,7.192V6.775h-.42871v.417Zm-.416.93359h.416v.417h-.416Zm.01171.90821h.37891v.3789h-.37891Zm.37891-2.77539V5.89218h-.36621V6.2584ZM204.025,9.95566h.32813v.32813H204.025Zm.32813-4.63183v-.0752l-.23926-.22754h-.07617v.30274Zm-.30273,5.55273h.27734v.27734h-.27734Zm.02539.93359h.22753v.22754h-.22753Zm.02539.92188h.17675v.17676h-.17675Zm.21484,8.49219v-.20215h-.20215v.20215Zm-.18945-7.57129h.126v.126h-.126Zm.16406,8.46679v-.15136h-.16406v.15136Zm-.02539.90918v-.126h-.126v.126ZM204.858,7.64609v-.416h-.42871v.416Zm-.40332,1.84277H204.82V9.8541h-.36524Zm.37793-2.77636V6.34629h-.36523V6.7125Zm-.35254,3.69726h.32715v.32813h-.32715Zm.32715-4.63086V5.67734l-.21387-.20117h-.10156V5.7789Zm-.30273,5.55176h.27832V11.609h-.27832Zm.02539.92188h.22754v.22656h-.22754Zm.02539.93359h.17676v.17676h-.17676Zm.21484,8.49219v-.20215H204.568v.20215Zm-.18945-7.57129h.126v.126h-.126Zm.16406,8.46777v-.15137h-.15137v.15137Zm.51758-1.33789v-.22754h-.25293v.22754Zm-.02539.9082v-.20117h-.20215v.20117Zm-.02539.89649v-.15137h-.16406v.15137Zm.50488-1.33789v-.252h-.25293v.252Zm-.02539.89648V22.398h-.20215v.20215Zm.50488-1.33789v-.25293h-.29v.25293Zm-.01269.90821v-.252h-.252v.252Zm-.02539.89648v-.20215h-.20215V23.067Zm.50488-1.33789v-.30274H206.36v.30274Zm-.02539.89551v-.252h-.25195v.252Zm.50488-1.33692v-.27832h-.34082v.27832Zm-.02539.89551v-.29h-.29v.29Zm-.01269.88379v-.22754h-.252V23.067Zm.50488-1.3125v-.34082h-.34082v.34082Zm-.02539.89551v-.30274h-.30274V22.65Zm.47949-.44141v-.34082h-.34082v.34082Zm.0127-.9209v-.27832H207.735v.27832Zm-.03809,1.7793v-.25293h-.29V23.067Zm.49219-.3916v-.34082h-.33985v.34082Zm.01269-.9209v-.34082h-.34082v.34082Zm.44239-.4668v-.27832h-.34082v.27832Zm0,1.7793v-.27832h-.34082V23.067Zm.01269-.8584v-.34082h-.34082v.34082Zm.4541-.4541v-.34082H209.111v.34082Zm.0127.9209v-.34082h-.34082v.34082Zm.4414-1.3877v-.27832h-.34082v.27832Zm0,.9209v-.34082h-.34082v.34082Zm.0127.8584v-.27832h-.34082V23.067Zm.4541-1.3125v-.34082h-.34082v.34082Zm0,.9209v-.34082h-.34082v.34082Zm2.00684-3.05371L210.3219,17.565v3.40722l2.05762,2.09473Zm-1.55274,2.58691v-.34082H210.486v.34082Zm0,.8584v-.27832H210.486V23.067Zm.4668-.3916v-.34082h-.34082v.34082Zm.45508.3916v-.27832h-.34082V23.067Z" style="fill:#17314f"/><path d="M215.61389,20.90879,213.64514,18.94a9.652,9.652,0,0,1-2.94043-6.915,9.35446,9.35446,0,0,1,9.56543-9.48926A10.4071,10.4071,0,0,1,225.444,3.75937l2.51074,2.54883V10.649a9.54952,9.54952,0,0,0-4.94629-1.74121c-3.30664,0-5.40136,1.99414-5.40136,5.07324a3.96258,3.96258,0,0,0,.75781,2.66211,6.44519,6.44519,0,0,0,2.53613.47949,8.91591,8.91591,0,0,0,4.36621-1.16015l2.6875,2.6875v4.21484a12.71174,12.71174,0,0,1-5.14844.959A9.79255,9.79255,0,0,1,215.61389,20.90879Zm9.376-.833V16.60605a9.16675,9.16675,0,0,1-4.08887.97168c-3.57129,0-5.98144-2.28418-6.00683-5.666,0-3.43262,2.335-5.59082,5.85546-5.59082a8.91785,8.91785,0,0,1,4.24024,1.04785V4.0123a10.57646,10.57646,0,0,0-4.71973-1.02246,8.89561,8.89561,0,0,0-9.11133,9.03516,8.846,8.846,0,0,0,9.09864,8.96A11.68929,11.68929,0,0,0,224.98987,20.07578ZM217.153,13.98105a6.85926,6.85926,0,0,1,.126-1.27441h-.126v-.16406h.15137a5.52849,5.52849,0,0,1,.4043-1.13575h-.16406v-.26562h.26464v.06347l.16407-.29v-.25293H218.15l.23926-.31543v-.15137h.13965l.29-.29V9.71543h.21387l.20215-.15137v-.29h-.44141V9.69h-.42871V9.26133h.42871V8.81992h-.4541v-.4541h-.44141v.42871h-.42969V8.36582h.417V7.92343H217.443v.417h-.42871V7.97422a3.96612,3.96612,0,0,0-.82031.89648h.30273v.31543h-.32812V8.90781a3.08037,3.08037,0,0,0-.26465.44238h.11328v.26465H215.778a5.25473,5.25473,0,0,0-.34082,1.12305h.08789v.17676h-.11328a6.75835,6.75835,0,0,0-.06347.8955,4.94948,4.94948,0,0,0,2.22168,4.417A5.09065,5.09065,0,0,1,217.153,13.98105Zm-1.77929-2.32226h.126v.126h-.126Zm.40429-1.3877h.21387v.21484H215.778Zm.02442.9209h.16406v.16406h-.16406Zm.01269.9209h.127v.12695h-.127Zm.39161-2.32129h.25195v.26465h-.25195Zm.01269.9209h.21484V10.94h-.21484Zm.02539.93359h.17676v.16406h-.17676Zm.02539.92188h.126v.126h-.126Zm.32813-4.17774h.36523v.37891h-.36523Zm.02441.92188h.31543v.32812h-.31543Zm.02539.93359h.26563v.26465h-.26563Zm.02539.9209h.21485v.21484h-.21485Zm.02539.92187h.16407v.17579h-.16407Zm.02539.9209h.126v.126h-.126Zm.31543-4.16406h.37793v.36523h-.37793Zm.03809.9209h.31543v.31543h-.31543Zm.36523-1.85547V7.65879a3.70471,3.70471,0,0,0-.35254.25195Zm-.34082,2.78906h.26563v.25293h-.26563Zm.02539.9209h.21485v.21484h-.21485Zm.36621-2.334h.37891v.3789h-.37891Zm.0254.93359h.31542v.31543h-.31542Zm.78222-2.334V7.50742h-.3789v.37891Zm-.3789.93359h.417v.416h-.417Zm.02539.9209h.36621V10.107h-.36621Zm.80761-1.40039v-.3916h-.37793v.3916Zm-.02539-.9336V7.07871h-.0498l-.27832.10058v.22754Zm.47949,1.375v-.3789H218.819v.3789Zm-.0371-.9209V7.53281h-.31543v.32812Zm.47949,1.375V8.84531h-.37891v.39062Zm-.02539-.93359V7.98691h-.32813v.31543Zm-.02539-.93359V7.11582h-.26465v.25293Zm.47949,1.38769V8.42832h-.32813v.32812Zm-.03809-.93359V7.5582H219.778v.26465Zm-.02539-.93359V6.81308l-.20117.0127v.06348Zm.49219,1.99316V8.858H220.194v.15136Zm-.0127-.60547V8.0123h-.26464V8.277Zm-.03711-.93359V7.14121h-.18945v.20215Zm.4795,1.375v-.252h-.25293v.252Zm-.02539-.9209V7.59531h-.20215v.20215Zm-.05078-.9209V6.775h-.126v.10156Zm.49218,1.3623V8.05039h-.18945v.18847Zm-.02539-.93359v-.126H221.191v.126Zm.47949,1.23731V8.49179H221.608v.08789Zm-.03711-.78321V7.6207h-.13964v.13867Zm.45411.45508V8.0748h-.13868v.13965Zm.23925,13.58984v-.126h-.11328v.126Zm.49219-.4414v-.16406h-.11328l-.06348.01269v.15137Zm-.02539.89648v-.11426H222.819v.11426Zm.49219-.42969v-.17675h-.17676v.17675Zm-.02539.89649v-.126h-.126v.126Zm.51758-1.33789v-.22754h-.23926v.22754Zm-.03809.89551V22.108h-.16309v.17578Zm-.02441.89648V23.067h-.11426v.11328Zm.542-2.2207V20.8082l-.27735.08789v.06348Zm-.02539.89551v-.22657h-.22656v.22657Zm-.02442.89648V22.5748h-.17675v.17676Zm.51661-1.33789v-.27734h-.29v.27734Zm-.02442.9082v-.23926h-.24023v.23926Zm-.02539.89649V23.0416h-.17676v.17676Zm.5293-2.2334v-.34082h-.32813V20.985Zm-.02442.89551v-.27735h-.27832v.27735Zm-.02539.8955v-.22656h-.22754V22.776Zm2.208-16.291-2.05664-2.082V7.91074l2.05664,1.94336Zm0,12.3418L225.444,16.77011v3.57032l2.05664,2.1455Zm-1.69043,2.625v-.34083h-.34082v.34083Zm-.02539.8955v-.29h-.27832v.29Zm-.02539.74414v-.07519h-.22754v.11328Zm.51758-1.18554v-.32813h-.34082v.32813Zm-.02539.8955V22.524h-.29v.27734Zm.47949-.42871v-.34082H226.403v.34082Zm.4668.34082v-.21484h-.34082v.31543Z" style="fill:#17314f"/><path d="M233.45959,21.61582l-2.13281-2.12012a8.53854,8.53854,0,0,1-2.19531-6.28418V2.88926h4.30273L236.21057,5.526v9.96875a6.71,6.71,0,0,0,.20215,1.7295,3.48367,3.48367,0,0,0,.64355.0498c2.2334,0,3.48243-1.52637,3.48243-4.29V2.88926h4.30371l2.64941,2.64941v9.67871c0,5.13574-3.26758,8.60645-8.05078,8.60645A7.83128,7.83128,0,0,1,233.45959,21.61582Zm11.06739-8.4043V3.34336h-3.53321V12.984c0,3.00293-1.45117,4.74512-3.9375,4.74512-2.6123,0-3.9375-1.90625-3.9375-4.707V3.34336h-3.5332v9.86816c0,5.03418,2.57422,7.77344,7.44531,7.77344C241.95276,20.985,244.527,18.30918,244.527,13.21152Zm-10.58789-9.1748V3.99961l-.36621-.35352v.39063Zm.02539.93457v-.417h-.3916v.417Zm1.792,10.52343v-6.498h-.37891V8.61777h.37891V8.13828h-.3916v-.416h.3916V7.25547h-.416V6.80039h-.45507v-.4541h-.45411V5.89218h-.4541v-.4541h-.40429v.4668h.3916v.416h-.3916v.50488h.3789V7.192h-.3789v5.85547c0,1.94336.68164,3.583,2.34765,4.0625A7.30784,7.30784,0,0,1,235.75647,15.49472Zm-2.1582-7.748h.32812V8.0748h-.32812Zm.02539.92187h.27734V8.9459h-.27734Zm.02539.9209h.22754V9.817h-.22754Zm.02539.93359h.17676v.17676h-.17676Zm.02539.92188h.126v.126h-.126Zm.71875-6.01953v-.417h-.42871v.417Zm-.416.93359h.416v.416h-.416Zm.39063-1.86719V4.42832l-.31543-.30274H234.028v.36621ZM234.028,7.26718h.36524v.37891H234.028Zm.02539.93458h.31543v.31542h-.31543Zm.01172.92089h.27832V9.4h-.27832Zm.02539.9209h.22754v.22754h-.22754Zm.02539.92188h.17676v.17578h-.17676Zm.0254.93359h.126v.126h-.126Zm.73144-6.01953v-.416H234.444v.416Zm-.416.93359h.416v.417h-.416Zm.01269.90918h.37891v.37793h-.37891Zm.37891-2.77636V4.857l-.291-.27735h-.07519V4.9459Zm-.35352,3.69726h.32813v.32813h-.32813Zm.02539.9209h.27735V9.8414h-.27735Zm.02442.93359h.22753v.22754h-.22753Zm.02539.92188h.17675v.17676H234.57Zm.02539.9209h.126v.126h-.126Zm.73242-6.00684v-.416h-.42969v.416Zm-.417.93359h.417v.417h-.417Zm.01269.90918h.36621v.36622h-.36621ZM235.30237,5.4V5.29941l-.27832-.26562h-.08789V5.4Zm-.35352,3.69726h.32813v.32813h-.32813Zm.02539.9209h.27735v.27832h-.27735Zm.02539.92188h.22657v.22656h-.22657Zm.02442.93359h.17676v.17676h-.17676Zm.02539.9209h.12695v.126h-.12695Zm.707-6.00684v-.416h-.4043v.416Zm0-.93359v-.126l-.25195-.24023h-.11426V5.8541Zm-.36621,3.68457h.32812v.32812h-.32812Zm.02539.93457h.27734v.27734h-.27734Zm.02539.9209h.22754v.22656H235.441Zm.02539.9209h.17676v.17675h-.17676Zm.02539.92089h.126v.127h-.126Zm2.53613,8.51856v-.13867h-.13867v.13867Zm.44141.44141v-.13868h-.13867v.13868Zm.4668-.416v-.17676h-.17676v.17676Zm-.02539.85742v-.126h-.13868v.126Zm.49218-1.28711v-.13867l-.22656.03809v.10058Zm-.02441.8711v-.17676h-.17676v.17676Zm-.02539.85839v-.127h-.12695v.127Zm.49219-1.2871v-.21485h-.21485v.21485Zm-.02539.87011v-.17676h-.17676v.17676Zm.49218-1.28711v-.26465h-.26562v.26465Zm-.02539.8584v-.21484h-.21484V22.234Zm-.02539.87012v-.17676h-.17676v.17676Zm.50489-2.15723v-.15136l-.29.10058v.05078Zm-.0127.87012v-.26465h-.26465V21.817Zm-.02539.87109v-.22754h-.21387v.22754Zm.49219-1.2998v-.29h-.30274v.29Zm-.02539.87109v-.25293h-.26465v.25293Zm-.02539.87012v-.22656h-.21387v.22656Zm.50488-2.15723v-.34082h-.32813v.34082Zm-.0127.85742v-.29H241.359v.29Zm-.02441.8711v-.25293h-.25293v.25293Zm.50391-2.1582v-.37793h-.18848l-.18945.126v.252Zm-.01172.87109v-.34082h-.34082v.34082Zm-.02539.87012v-.30274h-.30274v.30274Zm-.02539.66894v-.0625h-.25293v.15137Zm2.52343-1.48828.24024-.24023v-.17676h.16406a7.24916,7.24916,0,0,0,1.00879-1.42578h-.22656v-.29h.30273v.13867l.16406-.34082V18.902h.10059a9.66741,9.66741,0,0,0,.68164-3.68457V9.87949h-.31543V9.55136h.31543V8.99668h-.34082V8.63047h.34082V8.13828h-.35352v-.416h.35352V7.25547h-.37891V6.80039h-.4541v-.4541h-.4541V5.89218h-.4541v-.4541h-.31543v.4668h.30273v.416h-.30273v.50488h.29v.3789h-.29v.542h.26465V8.0748h-.26465v.59375h.23926V8.9459h-.23926v.65625h.21484v.22753h-.21484v3.38184a11.79759,11.79759,0,0,1-.36621,3.041h.10058v.22656h-.16406a7.20141,7.20141,0,0,1-.40332,1.07324h.16406v.29h-.29V17.817l-.13867.25293v.23926h-.13867a6.50986,6.50986,0,0,1-.707.93359,6.80953,6.80953,0,0,1-.8457.75781v.11328h.417v-.417h.4541v.44239h.44141v.4414h.4414v.44141h.44239v.44238Zm-2.01855-.47949v-.37891h-.37891V20.985Zm-.0127.87012v-.34082h-.34082v.34082Zm-.02539.87109v-.30274h-.29v.30274Zm.50489-2.1582v-.416h-.417v.416Zm-.0127.85839v-.3789h-.37891v.3789Zm-.02539.87012v-.34082h-.34082v.34082Zm.06348-3.02832h.40332v.417h-.40332Zm.416,1.74121v-.416h-.416v.416Zm-.01269.8711v-.37891h-.37891v.37891Zm-.17676.53027h-.18945v.10059Zm.21484-2.70117h.40332v.417h-.40332Zm.416,1.74219v-.417h-.416v.417Zm-.40332-2.61231h.37793v.37793h-.37793Zm.39062,3.17969v-.0752h-.37793v.32813Zm.03809-1.86719h.417v.416h-.417Zm.126,1.74121.30372-.24023v-.17676h-.42969v.417Zm-.11328-2.59961h.37891v.36621h-.37891Zm.02539-.87109h.34082v.32812h-.34082ZM244.4,20.60605h.417v.40332H244.4Zm.0254-.87109h.36621v.36621h-.36621Zm.01269-.87012h.34082V19.193h-.34082Zm.02539-.87109h.29v.30273h-.29Zm.0127-.8711h.26464v.26563h-.26464Zm.3916,3.05469h.37793v.37793h-.37793Zm.01172-.87109h.34082v.34082h-.34082Zm.02539-.8711h.291v.30274h-.291Zm.01269-.87011h.26563v.26464h-.26563Zm.02539-.8711h.22754v.22754H244.943Zm.0127-.87109h.18945v.18945h-.18945Zm.30273-11.78613V3.93613l-.27734-.27734v.37793Zm.02539.93457v-.417h-.30273v.417Zm-.30273,9.98144h.15137v.15137h-.15137Zm.01269-4.42969h.17676v.17676h-.17676Zm0,3.5586h.126v.126h-.126Zm.0254-2.63672h.126v.126h-.126Zm.71875-6.01953v-.417h-.42872v.417Zm-.416.93359h.416v.416h-.416Zm.39062-1.86719V4.39023l-.26464-.26465h-.11329v.36621Zm-.37793,15.25586h.32813v.34082h-.32813Zm.0127-12.46777h.37793v.36621h-.37793Zm0,11.59766H245.65v.30273h-.30273Zm.02441-10.67578h.32813v.32812h-.32813Zm0,9.81738h.25293v.252h-.25293Zm.0127-.88379h.22754v.22754h-.22754Zm.01269-8.0127h.27833V9.4h-.27833Zm0,7.14258h.20215v.20117h-.20215Zm.0254-6.22168H245.65v.22754h-.22753Zm0,5.35059h.15136v.15137h-.15136Zm.01269-.87012h.126v.126h-.126Zm.0127-3.54687h.17675v.17675h-.17675Zm.02539.92187h.126v.126h-.126Zm.71875-6.01953v-.416h-.42871v.416Zm-.416.93359h.416v.417h-.416Zm.39063-1.86718V4.84433l-.26465-.26465h-.10059V4.9459Zm-.36524,2.77636h.36524v.37793h-.36524Zm.0127,10.73828h.25195v.25293h-.25195Zm.01269-9.80468h.31543v.31543h-.31543Zm0,8.93457h.22656V17.817h-.22656Zm.0127-8.01367h.27734V9.8541h-.27734Zm0,7.14257h.20117v.18946h-.20117Zm.02441-6.22168h.22754v.22754h-.22754Zm0,5.35059h.15137v.15137h-.15137Zm.0127-.88281h.12695v.126h-.12695Zm.01269-3.5459h.17676v.17676h-.17676Zm.02539.93359h.126v.126h-.126Zm.73242-6.01953v-.416h-.42968v.416Zm-.417.93359h.417v.417h-.417Zm.0127.90918h.3789v.37793h-.3789ZM246.6217,5.4V5.29941l-.26562-.26562h-.10059V5.4Zm-.35351,3.69726h.32812v.32813h-.32812Zm0,8.93457h.22656v.22657h-.22656Zm.02539-8.01367h.27734v.27832h-.27734Zm0,7.14258h.18945v.18945h-.18945Zm.01269-.87012h.15137V16.442h-.15137Zm.0127-5.33789h.22656v.22656H246.319Zm0,4.4668h.126v.126h-.126Zm.02441-3.5459h.17676v.17676h-.17676Zm.02539.9209h.126v.126h-.126Zm.66895-6.00684v-.416h-.36621v.416Zm0-.93359V5.71543l-.22656-.22754h-.10157V5.8541Zm-.29,4.61914h.27734v.27734h-.27734Zm0,6.25879h.15137v.15137h-.15137Zm.02539-5.33789h.22656v.22656h-.22656Zm0,4.46679h.126v.126h-.126Zm.02539-3.5332h.17676v.17676h-.17676Zm.02442.9209h.12695v.12695h-.12695Z" style="fill:#17314f"/><path d="M249.26233,20.8707V2.88926H253.566L256.34143,5.526V16.79453h4.87109l2.6504,2.65039v4.07617h-11.9502Zm11.63476-.31543V17.24961h-7.64648V3.34336h-3.53418V20.55527Zm-7.44531.63086v-.126h-.126v.126Zm.56836-17.22461V3.94883l-.30273-.29h-.0127v.30273Zm.02539.93359V4.5289h-.34082v.36621Zm.02442.9336v-.416h-.36524v.416Zm1.81738,10.96582V8.99668h-.416v-.417h.416V8.11289h-.44141v-.4541h-.4541V7.20468h-.4541v-.4541h-.45508V6.29551h-.37793v.46777H254.07v.416h-.36524v.50489h.35254v.3789h-.35254v.542h.32813V8.9332h-.32813v7.86133ZM253.7301,9.526h.27735v.27832h-.27735Zm.02442.93457h.22754v.22657h-.22754Zm.02539.9209h.17676v.17676h-.17676Zm.13867,10.27149v-.126h-.126v.126Zm-.11328-9.35059h.126v.126h-.126Zm.71972-6.01855v-.417h-.42968v.417Zm-.417.93359h.417v.416h-.417Zm.3916-1.86816V4.984h-.3789v.36524Zm-.36621,2.78906h.37891v.36621h-.37891Zm.34082-3.72266V4.37754l-.27734-.26465h-.05078v.30273Zm-.31543,4.64356h.32813V9.3873h-.32813Zm.02539.92187h.27735v.27735h-.27735Zm.02539.9209h.22657v.22754h-.22657Zm.02442.93359h.17676v.17676H254.234Zm.16406,9.36329v-.15137H254.234v.15137Zm-.02441.90918v-.127h-.127v.127Zm-.11426-9.35157h.126v.127h-.126Zm.71973-6.01855v-.417h-.42969v.417Zm-.417.93359h.417v.416h-.417Zm.39161-1.86816V5.43808h-.36622v.36524Zm-.36622,2.77636h.36622v.37891h-.36622Zm.34082-3.71v-.0498l-.25195-.25293h-.06347v.30273Zm-.31542,4.64454h.31542v.31542h-.31542Zm.01269.92089h.27734v.27735h-.27734Zm.02539.9209h.22656v.22754H254.651Zm.02539.9209h.17676v.17676h-.17676Zm.02539.93457h.126v.126h-.126Zm.15137,8.44141v-.15137h-.15137v.15137Zm-.0127.92187v-.127h-.12695v.127ZM255.43323,7.192V6.775h-.42871v.417Zm-.416.93359h.416v.417h-.416Zm.01172.90821h.37891v.3789h-.37891Zm.37891-2.77539V5.89218h-.36621V6.2584Zm-.35352,3.69726h.32813v.32813h-.32813Zm.32813-4.63183v-.0752l-.23926-.22754H255.067v.30274Zm-.30274,5.55273h.27735v.27734h-.27735Zm.02539.93359h.22754v.22754h-.22754Zm.02539.92188h.17676v.17676h-.17676Zm.21485,8.49219v-.20215h-.20215v.20215Zm-.18946-7.57129h.126v.126h-.126Zm.16407,8.46679v-.15136h-.16407v.15136Zm-.02539.90918v-.126h-.126v.126Zm.59277-15.38281v-.416h-.42871v.416ZM255.484,9.48886h.36523V9.8541H255.484Zm.37793-2.77636V6.34629h-.36524V6.7125Zm-.35254,3.69726h.32715v.32813h-.32715Zm.32715-4.63086V5.67734l-.21387-.20117h-.10156V5.7789Zm-.30274,5.55176h.27832V11.609h-.27832Zm.02539.92188h.22754v.22656h-.22754Zm.02539.93359h.17676v.17676h-.17676Zm.21485,8.49219v-.20215h-.20215v.20215ZM255.61,14.107h.126v.126h-.126Zm.16406,8.46777v-.15137h-.15137v.15137Zm.51758-1.33789v-.22754h-.25293v.22754Zm-.02539.9082v-.20117h-.20215v.20117Zm-.0254.89649v-.15137h-.16406v.15137Zm.50489-1.33789v-.252h-.25293v.252Zm-.02539.89648V22.398h-.20215v.20215Zm.50488-1.33789v-.25293h-.29v.25293Zm-.0127.90821v-.252h-.25195v.252Zm-.02539.89648v-.20215H256.985V23.067Zm.50489-1.33789v-.30274h-.30274v.30274Zm-.02539.89551v-.252h-.252v.252Zm.50488-1.33692v-.27832h-.34082v.27832Zm-.02539.89551v-.29h-.29v.29Zm-.0127.88379v-.22754h-.252V23.067Zm.50489-1.3125v-.34082h-.34082v.34082Zm-.02539.89551v-.30274h-.30274V22.65Zm.47949-.44141v-.34082h-.34082v.34082Zm.01269-.9209v-.27832h-.34082v.27832ZM259.067,23.067v-.25293h-.29V23.067Zm.49218-.3916v-.34082h-.33984v.34082Zm.0127-.9209v-.34082h-.34082v.34082Zm.44238-.4668v-.27832h-.34082v.27832Zm0,1.7793v-.27832h-.34082V23.067Zm.0127-.8584v-.34082h-.34082v.34082Zm.4541-.4541v-.34082h-.34082v.34082Zm.01269.9209v-.34082h-.34082v.34082Zm.44141-1.3877v-.27832h-.34082v.27832Zm0,.9209v-.34082h-.34082v.34082Zm.0127.8584v-.27832h-.34082V23.067Zm.4541-1.3125v-.34082h-.34082v.34082Zm0,.9209v-.34082h-.34082v.34082Zm2.00683-3.05371L261.3512,17.565v3.40722l2.05761,2.09473Zm-1.55273,2.58691v-.34082h-.34082v.34082Zm0,.8584v-.27832h-.34082V23.067Zm.4668-.3916v-.34082h-.34082v.34082Zm.45507.3916v-.27832h-.34082V23.067Z" style="fill:#17314f"/><path d="M263.0885,20.83261l6.65039-17.94335h5.07324l3.39454,2.59863,6.70019,18.0332h-4.98437l-3.11622-2.59961-.32812-.93359h-5.60352l-1.22363,3.5332h-4.15137Zm4.35449-.27734,1.22364-3.5332h7.26855l1.22363,3.5332H280.983L274.58459,3.34336H270.067l-6.39746,17.21191Zm1.87989,2.51172.08789-.26563h-.15137v-.35351h.27832l.33984-.9834h-.18847v-.37891h.31543l.10058-.27734v-.20215h.07617l.126-.3916h-.20215v.3916h-.4541V20.152h-.44141v-.44238h-.45507v-.4541h.3916v-.39063h-.3916v.39063h-.37793l-.07617.22754v.21386h-.0752l-.16406.49219h.20117V20.568h-.33984l-.11426.32812v.16406l.10156.13868v-.10059h.35254v.35352h-.16406l.25293.32812v-.22754h.35351v.35352h-.26562l.87109,1.16113Zm-.98438-3.332h.3916v.3916h-.3916Zm.0127.90918h.36621v.36523h-.36621Zm.34082-1.84278v-.3789h-.02539l-.126.3789Zm.10058,1.3877h.37891V20.568h-.37891Zm0,.90918h.37891v.36621h-.37891Zm.0127.89551h.35351V22.36h-.35351Zm.27734-3.71v-.252H268.818v.252Zm.50488,1.41308v-.37793h-.37793v.37793Zm-.35351.93457h.3916v.39063h-.3916Zm.01269.90821h.36622v.36621h-.36622Zm.291-2.80176v-.26465h-.26563v.26465Zm.22656-1.03418v-.22754h-.30273v.22754Zm2.54883-11.19336,2.77637,7.50879H269.525ZM270.04163,20.152V19.773h-.37793V20.152Zm-.0625-.959v-.26563h-.25293V19.193Zm.252-1.02246v-.29h-.30274v.29Zm.20215,1.46386v-.25293h-.26465v.25293Zm.24023-6.07031V13.11h.42871v-.44141h-.4414V12.277l-.15137.3916h.15137V13.11h-.31543l-.127.35351v.10059Zm.03711,5.08594v-.30274h-.31543V18.65Zm.0127-.94629v-.22754h-.30274v.22754Zm.36621-5.51465v-.4043h-.252l-.15234.4043Zm.07519,6.92773v-.30273h-.30273v.30273Zm.02539-.94628v-.29h-.30273v.29Zm-.07519-6.877v-.26562l-.10156.26562Zm.4414,2.27051v-.44141h-.4414v.44141Zm-.01269-.9209v-.40332h-.40332v.40332Zm-.0127-.9209v-.36621h-.36621v.36621Zm-.02539-.90918v-.33984h-.17675l-.126.33984Zm.13965,8.71973v-.252h-.30371v.252Zm.02442-.88281v-.30274h-.31543V18.65Zm0-.94629v-.22754h-.30274v.22754Zm.31543-4.60645v-.40332h-.40332v.40332Zm-.01172-.9209v-.36621h-.36621v.36621Zm-.02539-.92089v-.32813h-.32813v.32813Zm-.0127-.90918v-.30274h-.30273v.30274Zm-.02539-.9209v-.252h-.10059l-.08886.252Zm.21484,9.6914v-.30273h-.30371v.30273Zm.01172-.94628v-.29h-.30273v.29Zm.30371-4.63086v-.4043h-.40429v.4043Zm-.02539-.90918v-.36621h-.36621v.36621Zm-.01269-.9209v-.32813h-.32813v.32813Zm-.0127-.9209v-.291h-.30273v.291Zm-.03808-.90918v-.252h-.252v.252Zm-.0127-.93359V8.74375h-.20215V8.9459Zm.27832,9.7041v-.30274h-.3164V18.65Zm-.01269.88281v-.252h-.30371v.252Zm.01269-1.8291v-.22754h-.30371v.22754Zm.0752-4.63184.126-.36523h-.31543v.36523Zm.16406-.9082v-.34082h-.34082v.34082Zm-.02539-.9209V10.94h-.29v.30273Zm-.02539-.9209v-.25293h-.252v.25293ZM272.77991,9.4V9.19785h-.20117V9.4Zm.291,9.71679v-.30273h-.30273v.30273Zm.0127-.94628v-.29h-.30371v.29Zm-.0127-8.30372-.07617-.20117H272.944v.20117Zm.126,1.83008.08789-.22754v-.07519h-.30273v.30273Zm1.23633,1.86719-.71875-1.95508-.71973,1.95508ZM273.26038,10.776V10.523h-.25293V10.776Zm.30273,7.874v-.30274h-.31543V18.65Zm-.01269.88281v-.252h-.30274v.252Zm.01269-1.8291v-.22754h-.30273v.22754Zm.4541,1.41308v-.30273h-.30273v.30273Zm.0127-.94628v-.29h-.30274v.29Zm.47949.47949v-.30274H274.194V18.65Zm-.0127.88281v-.252H274.194v.252Zm.0127-1.8291v-.22754h-.30273v.22754Zm.4541,1.41308v-.30273h-.30273v.30273Zm.0127-.94628v-.29h-.30274v.29Zm.47949.47949v-.30274h-.31543V18.65Zm-.0127.88281v-.252h-.30273v.252Zm.0127-1.8291v-.22754h-.30274v.22754Zm2.37207-11.9375-2.58692-1.99414,6.39844,17.2373,2.59961,2.01953Zm-1.918,13.35058v-.30273h-.30273v.30273Zm-.0625-.94628-.10156-.29h-.126v.29Zm.47949,1.3623-.08886-.252h-.15137v.252Z" style="fill:#17314f"/><path d="M285.8678,20.8707V9.58945h-2.09473l-2.65039-2.65039V2.88926h13.793l2.64941,2.64941V9.58945H292.9469V23.52109h-4.42969Zm3.9873-.31543V6.62363h4.74512V3.34336H281.57678V6.62363h4.74512V20.55527ZM282.53577,7.36875v-.29h-.33985v.29Zm.45507.4541V7.482H282.65v.34082Zm.4668.4668V7.94883h-.34082v.34082Zm-.02539-.94629V7.07871h-.29v.26465Zm.47949,1.40039V8.40293h-.34082v.34082Zm-.01269-.9336V7.50742h-.30274v.30273Zm.47949,1.3252V8.8707h-.34082v.26465Zm-.02539-.87109v-.29h-.29v.29Zm-.02539-.94629V7.07871h-.252V7.318ZM284.82,8.73105V8.42832h-.30274v.30273Zm-.02539-.94629v-.252h-.252v.252Zm.48046,1.35059V8.89511h-.291v.24024Zm-.02539-.89649v-.252h-.25293v.252Zm-.02539-.94628V7.0914h-.20215v.20118Zm.49219,1.41406V8.45371h-.25293v.25293Zm-.02539-.94727V7.5582h-.20215v.20117Zm4.79492-.21386v-.29l-.17676-.17676v.4668Zm2.00684,7.01562h-.03809v-.11328h.03809v-.74414h-.06348v-.18945h.06348v-.68165h-.08887v-.252h.08887v-.61914h-.126v-.30273h.126V11.0914h-.15137v-.36621h.15137V10.233h-.18946V9.7916h.18946V9.36191h-.20215v.417h-.42871V9.35019h.416V9.04648l-.13867-.13867h-.29v.417h-.4414V8.89511h.416V8.59238l-.13867-.13867h-.29v.42871h-.44238V8.441h.42969v-.29l-.13868-.13867h-.30371v.416h-.42871V7.99961h.417V7.69687l-.13964-.13867h-.29v.416h-.18946v.51757h.17676V8.858h-.17676V9.4h.127v.31543h-.127v.61816h.08887v.25293h-.08887v.68164h.06348v.18848h-.06348v.74512h.03809V12.315h-.03809v8.68164l2.1836,2.083Zm-1.95606-5.64062h.37891v.3789h-.37891Zm.03809.93359h.30273v.31543h-.30273Zm.02539.93457h.252v.23926h-.252Zm.03711.93359h.17676V11.899h-.17676Zm.02539.9209h.126v.126h-.126Zm.32812-5.376V7.11582h-.16406v.15136Zm0,2.10743h.36622v.36621h-.36622Zm.0254.93457h.31543v.30273h-.31543Zm.03808.93359h.23926V11.482h-.23926Zm.02539.9209h.18848v.18945h-.18848Zm.03711.93359h.11426v.127h-.11426Zm.32813-5.375V7.5709h-.15137v.15136Zm0,2.10742h.36621v.36524H291.445Zm.02539.9209h.31543V11.066h-.31543Zm.03808.9336h.23926v.25293h-.23926Zm.02539.93359h.18946v.18945h-.18946Zm.03809.93457h.11328v.11328h-.11328Zm.36523-6.25976V7.0914H291.736v.20118Zm-.02539.89648V8.03769h-.16406v.15137Zm-.02441,2.082h.37793V10.649h-.37793Zm.03711.93359h.30273v.31543h-.30273Zm.02539.9336h.25293v.24023h-.25293Zm.03809.93359h.17675v.17676h-.17675Zm.02539.92188h.126v.126h-.126Zm.37793-6.24707V7.54551h-.20118v.20117Zm-.02442.89648V8.49179h-.15137v.15137Zm.5166-1.33789V7.07871h-.252v.22656Zm-.02441.90918V8.0123h-.20215v.20215Zm-.02539.89551V8.95859h-.16406V9.11Zm.50488-1.33789v-.252h-.25293v.252Zm-.02539.89648V8.4664H293.111v.20215Zm.50488-1.33789V7.07871h-.291v.25195Zm-.01269.9082v-.252h-.25293v.252Zm-.02539.89649V8.9332h-.20215v.20215Zm.50488-1.33789V7.49472h-.30273v.30274Zm-.02539.89648V8.441h-.25293v.25293Zm.50488-1.33789V7.07871h-.34082v.27734Zm-.02539.89551v-.29h-.29v.29Zm-.01269.88379V8.90781h-.252v.22754Zm.50488-1.3125V7.482h-.34082v.34082Zm-.02539.89551V8.41562h-.30274v.30274ZM297.111,5.71543l-2.05664-2.05664V7.07871L297.111,9.13535ZM295.68518,8.277V7.93613h-.34082V8.277Zm-.02539.8584V8.88242h-.29v.25293Zm.49219-.3916V8.40293h-.34082v.34082Zm.4541.3916V8.858h-.34082v.27734Z" style="fill:#17314f"/><path d="M301.45276,20.52988l-1.67774-1.665a9.57363,9.57363,0,0,1-2.94043-6.89062,9.44621,9.44621,0,0,1,9.46387-9.43848,9.75239,9.75239,0,0,1,6.90332,2.95215l2.06934,2.083a9.4589,9.4589,0,0,1-6.58692,16.25293C305.83167,23.82383,303.86389,22.91562,301.45276,20.52988Zm13.85644-8.55566a9.01025,9.01025,0,1,0-9.01074,9.01074A8.98586,8.98586,0,0,0,315.3092,11.97422Zm-14.41113,0a5.40367,5.40367,0,1,1,10.80176,0,5.40454,5.40454,0,1,1-10.80176,0Zm2.25879,2.13281a5.88634,5.88634,0,0,1,.22656-1.65332h-.0625v-.21387h.13867a5.747,5.747,0,0,1,.4795-1.06055h-.22754v-.31543h.3164v.17676c.0625-.10058.126-.20215.18848-.29h-.08789v-.36621h.37891l.03711-.03808V9.91758h.417V9.47617h-.42969v.416h-.42871v-.416h.416V9.03379h-.44141v.417h-.416V9.02207h.416V8.59238h-.44141v.417h-.416V8.57968h.416v-.4414h-.4414v.416h-.42969l-.0127-.20117-.21386.252h.17675v.36621h-.36621v-.126l-.16406.23926h.06348V9.4h-.25293a4.881,4.881,0,0,0-.42871,1.06054h.18945v.21387h-.21484v-.13867a5.35785,5.35785,0,0,0-.18946,1.43848,5.11877,5.11877,0,0,0,2.22071,4.35351A5.45308,5.45308,0,0,1,303.15686,14.107ZM301.567,11.38144h.16406v.16407H301.567Zm.01269.90821h.126v.127h-.126Zm.37793-2.2959h.26563v.26465h-.26563Zm.02539.9209h.21485v.21484H301.983Zm.02539.9082h.16407v.16406h-.16407Zm.0127.90918h.126v.126h-.126Zm.35351-3.20606h.31543V9.8414h-.31543Zm.02539.92188h.26465v.25195H302.4Zm.02442.9082h.21484v.21485h-.21484Zm.02539.90821h.16406V12.441h-.16406Zm.02539.90917h.126v.126h-.126Zm.31543-4.11425h.37891v.36621h-.37891Zm.03809.90918h.30273v.31543h-.30273Zm.02539.9209h.252v.25195h-.252Zm.02539.9082h.20117v.21484h-.20117Zm.01269.90918h.17578v.17676h-.17578Zm.02442.9209h.127v.126h-.127Zm.26562-5.48926V7.96152l-.20215.17676Zm.0625,1.36328h.36621v.36523h-.36621Zm.02539.9082h.31543v.31543h-.31543Zm.02539.9209h.26465v.26563h-.26465Zm7.9502.64356a5.43531,5.43531,0,0,0-.4668-2.25879,3.4135,3.4135,0,0,0-2.22168-.73145,4.972,4.972,0,0,0-4.94629,5.123,4.01527,4.01527,0,0,0,.71973,2.625,4.98343,4.98343,0,0,0,6.915-4.75781Zm-7.20606-3.86133V7.735h-.37793v.37793ZM303.68713,9.943h.36524v.36621h-.36524Zm.80762-1.38868V8.17636h-.37891v.37793Zm-.03808-.92089V7.318H304.192l-.05078.02539v.29Zm.47949,1.36328V8.61777h-.37891v.37891Zm-.03809-.92188V7.75937h-.31543V8.0748Zm-.02539-.9209V7.05332l-.252.08789V7.1539Zm.50488,2.28418v-.3789h-.3789v.3789Zm-.02539-.9209V8.20176h-.32812v.31542Zm-.03711-.90917V7.34336h-.25293V7.608Zm.4795,1.36328V8.64316h-.31543v.32813Zm-.02539-.9209V7.78476h-.26563v.26563Zm-.03809-.92188V6.92734h-.18945v.20117Zm.416,1.96875h-.22656v.126Zm.06348-.60547V8.23886h-.26465v.25293Zm-.03808-.92089V7.38144H305.983V7.5709Zm.32812,1.3623.15137-.0625V8.68125H306.4V8.9332Zm.126-.9209V7.82285h-.20117V8.0123Zm-.03711-.9209V6.96445h-.127V7.0914Zm.47949,1.375V8.26426h-.20215V8.4664Zm-.03809-.92089V7.40683h-.126v.13868Zm.0752,14.30957v-.11329h-.11328v.11329Zm.36621-13.86817v-.126h-.126v.126Zm.08887,13.43945v-.07617l-.13867.02539v.05078Zm-.0127.87012V22.1832h-.11426v.11328Zm.37793-13.86816v-.126h-.13867v.126Zm.07617,13.43945V21.7291h-.13867v.13867Zm-.02539.87109v-.11425h-.10058v.11425Zm.4795-1.2871V21.275h-.17676v.17676Zm-.0127.85742v-.13867h-.15137v.13867Zm-.02539.87109V23.067H308.318v.11328Zm.47949-1.2998V21.7164h-.17676v.16407Zm-.02441.87109v-.13965H308.734v.13965Zm.47949-1.28711V21.2623H309.151v.20215Zm-.0127.85742v-.16406h-.17675v.16406Zm-.02539.8711v-.13868h-.13867V23.193Zm.49219-2.15821V20.8082h-.10156c-.04981.0127-.08789.03711-.13867.04981v.17675Zm-.01269.8711v-.20215h-.20215v.20215Zm-.02539.85742v-.16309h-.16407v.16309Zm.47949-1.28711v-.23926h-.24024v.23926Zm-.0127.87109v-.21484h-.21484v.21484Zm-.02539.8584V23.0289h-.16406v.17676Zm.07617-2.56152v-.08887l-.18945.08887Zm.416.40332v-.26465h-.26465v.26465Zm-.0127.87109v-.24023h-.23925v.24023Zm-.01269.85742V22.5748h-.21387V22.776Zm.47949-2.14453v-.30273h-.30273v.30273Zm-.01269.85742v-.26464h-.26465v.26464Zm-.01172.8711v-.24024h-.24024V22.36Zm-.02539.68164v-.02539h-.20215v.07519Zm.50488-2.83984v-.32813h-.10156l-.22657.15137v.17676Zm-.0127.87109v-.30274h-.30273v.30274Zm-.01269.8584v-.26563h-.26563v.26563Zm-.0127.87011v-.23925h-.24023v.23925Zm.50489-3.01562v-.31543l-.36622.26465v.05078Zm-.0254.8584V20.316h-.32812v.32813Zm-.01269.87012v-.30274h-.30273v.30274Zm-.0127.85839V22.108h-.27734v.26464Zm.4795-2.1455v-.36622h-.36621v.36622Zm-.0127.85839v-.32812h-.32812v.32812Zm-.01269.87012v-.30273h-.30274v.30273Zm-.03809.59375H312.192v.11328Zm.08887-3.19238V19.1041l-.31543.25293Zm.42871.4414v-.3916h-.39063v.3916Zm-.0127.8584v-.35351h-.36523v.35351Zm-.01269.87012v-.32812H312.608V21.527Zm-.15137.8584.13867-.07617v-.21387h-.30273v.29Zm.20215-3.458v-.252l-.26465.252Zm1.7539,1.7666v-.42871h.44141v.35352l.34082-.36621H315.195v-.40332h.40429v.31543l.29-.36622h-.22754v-.3789h.36621V19.609l.18946-.27734h-.10059v-.32813h.31543l.13867-.24023v-.18945h.10059A9.69877,9.69877,0,0,0,317.151,17.527h-.11328v-.24023h.18945a8.55765,8.55765,0,0,0,.30274-1.11036h-.0127v-.17675h.05078c.03711-.23926.0625-.4795.08789-.71875h-.126v-.15137h.13867c.01269-.21484.02539-.42969.02539-.64356a9.12491,9.12491,0,0,0-3.10449-6.99121,9.23722,9.23722,0,0,1,.78222,7.168h.13868v.21387h-.20118a10.09806,10.09806,0,0,1-.417,1.07324h.20215v.27735h-.26465v-.15137l-.15137.30273v.30274h-.16406a9.68213,9.68213,0,0,1-.98437,1.40039h.31543v.40429h-.4043V18.1832l-.29.32813h.26465V18.94h-.416v.42968h.42871v-.417h.42969v.42871h-.417v.42969h.42969v-.417h.42871v.42969h-.42871v.42871h.42871v-.416h.4414v.42871h-.42871v.42871Zm-1.33789-.4541v-.40332h-.39062v.40332Zm-.01171.8584V20.732H313.025v.36621Zm-.0127.87012v-.33985h-.32812v.33985Zm.4668-1.28711v-.40332h-.3916v.40332Zm-.0127.8584v-.36622h-.36621v.36622Zm.05078-3.01563h.40332v.40332h-.40332Zm.01172-.8584h.36621v.36621h-.36621Zm.3916,3.458v-.4043h-.3916v.4043Zm-.252.49219h-.12695v.08789Zm.29-2.65039h.40332v.40429h-.40332Zm.01269-.8584h.36524v.36621h-.36524Zm.26465,3.05371h-.26465v.22754Zm-.252-3.92383h.33984v.34082h-.33984Zm.40332,2.16992h.417v.4043h-.417Zm.34082,1.29981h-.34082v.32812Zm-.31543-2.16992h.36621v.37793h-.36621Zm.0127-.8584h.34082v.34082h-.34082Zm.01269-.8711h.31543v.31543h-.31543Zm.416,2.1709h.36621V19.357h-.36621Zm.01269-.8584h.34082v.34082H315.233Zm.0127-.87011h.31543V17.565h-.31543Zm.02539-.8584h.26465v.27734h-.26465Zm.01269-.8711h.23926V15.773h-.23926Zm.39063,3.042h.34082V18.902h-.34082Zm.01269-.8711h.30274v.31543h-.30274Zm.0127-.8584h.27832V17.11h-.27832Zm.02539-.87011h.24023v.25195h-.24023Zm.0127-.8584h.21484v.21484h-.21484Zm.01269-.87109h.17676v.17675h-.17676Zm.0127-.85743h.15136v.13868h-.15136Zm.02539-.87109h.11328v.11328h-.11328Zm.34082,5.62793h.30273v.30273h-.30273Zm.01269-.8584h.27735v.26563h-.27735Zm.01172-.87012h.25293v.23926h-.25293Zm.02539-.85839h.21485v.20214h-.21485Zm.0127-.87012h.17675v.17578H316.192Zm.01269-.8584h.15137v.13867h-.15137Zm.02539-.87109h.11328v.11425h-.11328Zm.35352,4.7705h.27734v.26465h-.27734Zm.01269-.87109h.252v.24023h-.252Zm.02539-.8584h.20118v.20215h-.20118Zm.01172-.87012h.17676v.17676h-.17676Zm.0127-.85839h.15137v.13867h-.15137Zm.02539-.87012h.11426v.11328h-.11426Zm.3916,3.02832h.20215v.21387h-.20215Zm.0127-.8584h.17675V15.735h-.17675Zm.01269-.87109h.15137v.15234h-.15137Zm.0127-.85743h.11328V13.943h-.11328Zm.4414.44141h.11328v.11328h-.11328Z" style="fill:#17314f"/><path d="M319.20374,20.8834V2.88926h7.14257a7.35933,7.35933,0,0,1,5.29981,2.11914l1.95605,1.96875a5.92808,5.92808,0,0,1,2.06934,4.53027,5.571,5.571,0,0,1-2.46094,4.47949l4.45508,7.53418H332.6051l-4.11328-2.56152-1.80469-3.52149h-.4541v6.083h-4.18945Zm3.9375-.32813v-5.7041h2.72558l2.915,5.7041H332.984L329.4635,14.107a6.041,6.041,0,0,0,3.24317-5.13574c-.0127-3.24317-2.68848-5.62793-6.36036-5.62793h-6.68847V20.55527Zm0-14.05762h3.24316a2.7525,2.7525,0,1,1-.08887,5.502h-3.15429Zm.68164,1.22461V7.36875h-.22754v.35351Zm1.70312,3.82325v-.73243h-.20215v-.31543h.20215v-.5039h-.27734V9.55136h-.4541v-.4541h-.45508v-.4541h-.44141v-.4414h-.30273v.50488h.25195v.31543h-.25195v2.52344Zm-1.58984,4.20214v-.416h-.34082v.416Zm1.84179,2.25879h-.42871v-.4541h-.4541V17.11h-.4414v-.4541h-.4668v-.44141h-.3916v4.78223l2.18261,2.083Zm-2.14453-8.32812h.15137V9.8414h-.15137Zm0,7.02832h.31543v.31543h-.31543Zm.0752.98437H323.86v.15137h-.15137Zm.56836-9.51465V7.82285h-.35352v.35351Zm-.05078-.959V6.96445h-.252v.25293Zm-.252,1.93066h.31543v.32813h-.31543Zm.40332,7.02832v-.35351h-.36621v.35351Zm-.30273-6.04394h.15137v.15137h-.15137Zm0,7.02832h.31543v.31543h-.31543Zm.08789.98437h.15234v.15137h-.15234Zm.55566-9.52734V8.277h-.35351v.34082Zm-.03808-.89551V7.46933h-.252v.25293Zm-.252,1.87989h.31543v.31543h-.31543Zm.39063,7.02832v-.35254h-.33984v.35254Zm-.31543-6.04395h.15137v.15137h-.15137Zm.02539,7.01563h.31543v.32812h-.31543Zm.07617.98437h.16407v.15137h-.16407Zm.56739-9.51465V8.71836H324.819v.35351Zm-.30274.98438h.32813v.31543h-.32813Zm.29-2.83887V6.96445h-.25195v.25293Zm0,.94629V7.91074h-.25195v.25293Zm.11426,8.92187V16.732h-.35352v.35351Zm-.31543-6.05761H325.11V11.192h-.15137Zm.01172,7.02929h.32812v.31543h-.32812Zm.08886.98438h.15137V19.193h-.15137ZM325.526,9.526V9.17343h-.252V9.526Zm.08789-1.80371V7.46933h-.252v.25293Zm.11426,9.80469v-.34082h-.35352V17.527Zm-.08887-8.87109V8.40293h-.25195v.25293Zm-.21386,9.85547h.31542v.31543h-.31542Zm.08789.97168h.15136v.16406h-.15136Zm.58105-11.31934V7.91074h-.25293v.25293Zm-.03809-.98438V7.00254h-.17675v.17675Zm.23926,4.36622a2.29752,2.29752,0,0,0,2.42285-2.335H325.9801v2.335Zm.27832-2.88965V8.40293h-.25293v.25293Zm-.06347-.97168V7.50742h-.17676v.17676Zm.46679.4414V7.96152h-.16406v.16406Zm-.02539-.93359V7.066h-.126v.126Zm.51758,1.42578V8.441h-.17676v.17676Zm-.03809-.97168v-.126h-.126v.126Zm.4795.4541v-.126h-.126v.126Zm.47949.49219v-.126h-.126v.126Zm4.61914,7.9502h-.11426v-.20215l-.0625-.11328h-.4541v-.44141h-.45508v-.417h-.46679v-.36524h-.4795v-.3789H330.485V14.1832h-.27735l-.13867.08789.20215.36621h.16406V14.94l.08789.16406v-.07617h.37891v.3789h-.21485l.4795.88379h.10156v.17578l2.47265,4.53028L336.82,23.00351Zm-2.05762-2.58692v-.27734h-.08789l-.18945.16406v.11328Zm.07617,1.47656h.34082V15.773h-.34082Zm.44141-1.89257v-.35352h-.08789l-.26563.26465v.08887Zm-.0625.87011v-.27734h-.26562v.27734Zm.10059,1.45117h.30273v.30274h-.30273Zm2.24609-.94628v-.40332h.37891l.11328-.15137v-.26563h.18945a5.18433,5.18433,0,0,0,.51758-1.05957h-.18945v-.21484h.22656v.10059a4.45059,4.45059,0,0,0,.22754-1.41309c0-1.80469-.55567-2.90234-2.58692-4.89649a5.1143,5.1143,0,0,1,.53028,2.38575,5.0358,5.0358,0,0,1-.126,1.14843h.126v.16407h-.16407a6.311,6.311,0,0,1-.3916,1.123h.16407v.29h-.29v-.05078l-.11329.21485v.32812h-.20214l-.21485.30273v.17676h-.13867l-.27734.34082v.08789h.42871v-.416h.4414v.4414h-.416v.416h.416v-.40332h.44239v.44141h-.417v.417h.42969v-.417h.44141v.4414h-.416v.42969h.42871v-.417h.42871v.44238h-.40332v.416Zm-2.2207,1.7539h.20215v.20215h-.20215Zm.39062-2.6875v-.35351h-.35254v.35351Zm-.0498.87012v-.26465h-.27832v.26465Zm.10058,1.40137h.27735v.27734h-.27735Zm.3916-1.81739v-.35351H332.025v.35351Zm-.02539.8584v-.29h-.30273v.29Zm-.26562,1.72852h.13965v.13867h-.13965Zm.36621-4.73242h.36621v.36621H332.441Zm.37891,2.59961v-.35352h-.35352v.35352Zm-.05078.85839.03808-.02539v-.27734h-.31543v.30273Zm-.252.88282h.23926v.24023h-.23926Zm.37793-3.88575h.36621V13.11h-.36621Zm.37891,2.58692v-.35352h-.35352v.35352Zm-.34082-3.458h.29v.30273h-.29Zm.02539-.8584h.22754v.22754h-.22754Zm.05078,5.96875h.20117v.20215h-.20117Zm.32812-3.78515h.37793v.36523h-.37793Zm.03711-.8711h.30371v.30274h-.30371Zm.03809-.8584h.22754v.22754h-.22754Zm.03809-.87011h.15136v.16406h-.15136Zm.02539-.8711h.11328V9.8414h-.11328Zm.31543,3.91211h.36621v.36621h-.36621Zm.03808-.8584h.29v.29h-.29Zm.03711-.87011h.22754v.22656h-.22754Zm.02539-.8584h.16406v.15136h-.16406Zm.02539-.88379h.11328v.11426h-.11328Zm.35352,3.05469h.30273V13.527h-.30273Zm.03808-.8584h.22657v.22656h-.22657Zm.03711-.8711h.15235v.16407h-.15235Zm.02539-.87011h.11426v.11328h-.11426Zm.42969,1.32422h.15137v.15234h-.15137Zm.02442-.87012h.10156v.10058h-.10156Z" style="fill:#17314f"/><path d="M19.44735,8.71836a10.26877,10.26877,0,0,0-.445,1.54c-.09629.60945.50925-.48521.50925-.48521Z" style="fill:#feffff"/><polygon points="264.059 19.508 263.67 20.555 264.354 20.555 264.059 19.508" style="fill:#feffff"/></svg>